<?xml version="1.0" encoding="UTF-8"?>
<svg xmlns="http://www.w3.org/2000/svg" version="1.1" viewBox="0 0 1200 800">
  <defs>
    <style>
      .cls-1 {
        opacity: .6;
      }

      .cls-2 {
        fill: #fff;
      }

      .cls-3, .cls-4 {
        fill: none;
        stroke: #fff;
        stroke-miterlimit: 10;
      }

      .cls-5 {
        fill: #acccec;
      }

      .cls-6 {
        opacity: .7;
      }

      .cls-7 {
        opacity: .2;
      }

      .cls-8 {
        opacity: .4;
      }

      .cls-9 {
        opacity: .4;
      }

      .cls-4 {
        stroke-width: .5px;
      }

      .cls-10 {
        opacity: .4;
      }

      .cls-11 {
        opacity: .9;
      }

      .cls-12 {
        opacity: .3;
      }
    </style>
  </defs>
  <!-- Generator: Adobe Illustrator 28.7.1, SVG Export Plug-In . SVG Version: 1.2.0 Build 142)  -->
  <g>
    <g id="Layer_1">
      <g>
        <path class="cls-2" d="M816.3,487.5h33c-.1-1-1.5-1.9-3.1-2.2-2.2-.4-4.6,0-6.5.7,0-1.3-1.6-2.5-3.8-2.8-2.2-.2-4.5.6-5.3,1.8-.2-1.4-.5-3-2.2-3.9-1.8-1-5-.9-6.8.1-1.7,1-1.7,2.9,0,3.9-1.2-.5-2.8-.7-4.2-.4-1.4.3-2.4,1.1-2.2,2,0,.3.5.5,1,.8Z"/>
        <g class="cls-11">
          <path class="cls-2" d="M853.1,533.7c6.7-6.7,8-18.1,2.9-26-5-8-15.9-11.7-24.8-8.5,3.4-8.7-5.8-19.4-14.9-17.5,1.8-4,.6-9.1-2.7-11.8-3.4-2.8-8.6-2.9-12.1-.3-.6-16.3-14.7-30.5-30.9-32.9-16.1-2.4-32.9,6.2-42,19.7-9.1,13.5-11,31.2-6.9,47-2.9-1-5.9,1.9-6.1,5-.2,3,1.4,5.9,3,8.5-5.4-2.7-12.6-2.5-17,1.6-4.4,4.1-4.5,12.5.6,15.7l150.9-.4Z"/>
        </g>
        <g class="cls-9">
          <path class="cls-5" d="M834.4,513.8c-9.6-11.5-23.7-11-36.1-4.5-1.5.8-3.1,0-3.7-1.5-4.2-11.8-14.5-16-25.4-9.4-1.8,1.1-3.5-.4-3.8-2.2-1.5-11-10.4-20.3-20.7-23.8-9.8-3.3-18.9-.5-24.6,7.2-1,7.9-.4,16,1.6,23.7-2.9-1-5.9,1.9-6.1,5-.2,3,1.4,5.9,3,8.5-5.4-2.7-12.6-2.5-17,1.6-4.4,4.1-4.5,12.5.6,15.7l140.8-.4c-1.2-7.3-4-14.3-8.7-19.9Z"/>
        </g>
        <g class="cls-11">
          <path class="cls-2" d="M725.9,461.8c9.1-13.5,25.9-22.1,42-19.7,16.1,2.4,30.3,16.6,30.9,32.9,3.5-2.6,8.8-2.5,12.1.3,3.4,2.8,4.6,7.9,2.7,11.8,9.1-2,18.3,8.7,14.9,17.5,8.9-3.2,19.7.5,24.8,8.5,3.4,5.3,3.9,12.1,1.9,18.1,4.8-6.8,5.2-16.5.8-23.5-5-8-15.9-11.7-24.8-8.5,3.4-8.7-5.8-19.4-14.9-17.5,1.8-4,.6-9.1-2.7-11.8-3.4-2.8-8.6-2.9-12.1-.3-.6-16.3-14.7-30.5-30.9-32.9-16.1-2.4-32.9,6.2-42,19.7-1.8,2.6-3.3,5.4-4.5,8.3.6-1,1.2-1.9,1.8-2.9Z"/>
        </g>
        <g class="cls-6">
          <path class="cls-2" d="M828.2,517c-11-7.3-29.3-5.2-39.4,2.7-1.5,1.2-3.5.8-4.2-1.1-3.5-9.7-15.2-20-23.9-9.8-1.4,1.7-4.3.3-4.3-1.8.3-16.9-23-37.7-36.5-25.2-.6,7.2,0,14.5,1.8,21.5-2.9-1-5.9,1.9-6.1,5-.2,3,1.4,5.9,3,8.5-5.4-2.7-12.6-2.5-17,1.6-4.4,4.1-4.5,12.5.6,15.7l136.7-.4c-1.9-6.6-4.7-12.7-10.7-16.7Z"/>
        </g>
        <g class="cls-6">
          <path class="cls-2" d="M719.9,491c13.5-12.6,36.8,8.3,36.5,25.2,0,2.1,2.8,3.4,4.3,1.8,8.8-10.3,20.4.1,23.9,9.8.7,1.9,2.6,2.3,4.2,1.1,10.2-7.9,28.4-10,39.4-2.7,3.1,2,5.3,4.6,7,7.6h3.7c-1.9-6.6-4.7-12.7-10.7-16.7-11-7.3-29.3-5.2-39.4,2.7-1.5,1.2-3.5.8-4.2-1.1-3.5-9.7-15.2-20-23.9-9.8-1.4,1.7-4.3.3-4.3-1.8.3-16.9-23-37.7-36.5-25.2-.3,3.3-.3,6.6,0,9.9,0-.3,0-.6,0-.8Z"/>
        </g>
        <g class="cls-8">
          <path class="cls-5" d="M754.9,456.4c6.6-.2,13.3,4.5,14.5,11.2.2.9.2,1.9.4,2.9l-2.5-1c5.4-5,15.4-8.1,19.7-.2-6.6-6.2-14.6-.7-19.9,4.4,0,0-.3-3.1-.3-3.1,0-7.1-5.4-12.1-11.9-14.2h0Z"/>
        </g>
        <g class="cls-8">
          <path class="cls-5" d="M729,506.2c6.8-5.4,16.1-1.5,17.9,6.9.9,5.6-.5,1.5-2.2-.6-3.7-5.7-9-7-15.6-6.2h0Z"/>
        </g>
        <path class="cls-2" d="M697.1,467.9h44.3c-.2-2.2-2-4.3-4.2-5.1-2.9-.9-6.1,0-8.8,1.6,0-3-2.2-5.8-5.1-6.4-2.9-.5-6.1,1.3-7,4.1-.2-3.3-.6-6.8-3-9.1-2.5-2.3-6.7-2.2-9.1.2-2.3,2.4-2.3,6.7,0,9.1-1.6-1.1-3.7-1.5-5.6-.9-1.8.7-3.2,2.6-3,4.5,0,.6.7,1.3,1.4,1.8Z"/>
        <path class="cls-2" d="M707.2,511.3c1.9,0,1.9-3,0-3s-1.9,3,0,3h0Z"/>
        <path class="cls-2" d="M712.7,505c1.9,0,1.9-3,0-3s-1.9,3,0,3h0Z"/>
        <path class="cls-2" d="M725.4,454.2c1.9,0,1.9-3,0-3s-1.9,3,0,3h0Z"/>
        <path class="cls-2" d="M735.3,444.2c1.9,0,1.9-3,0-3s-1.9,3,0,3h0Z"/>
        <path class="cls-2" d="M844.2,493.2c1.9,0,1.9-3,0-3s-1.9,3,0,3h0Z"/>
      </g>
      <g>
        <g class="cls-11">
          <path class="cls-2" d="M31.7,366.1c-8.3-4.8-14.1-14.8-11.8-24.1,2.4-9.3,14.7-15.3,22.5-9.6-2.3-4.5-1.2-10.4,2.4-13.8,3.7-3.4,9.6-4.1,14-1.5-3.4-11.1,2.2-23.9,12.1-30,9.9-6,23.1-5.5,33.2.4,10,5.8,16.9,16.4,19.3,27.8,5.2-2.3,11.8-1.2,16,2.6s5.9,10.2,4.2,15.7c8.7-4.2,20.5-.5,25.2,7.9,4.8,8.4,1.9,20.4-6.2,25.7l-130.9-.9Z"/>
        </g>
        <g class="cls-7">
          <path class="cls-5" d="M118.3,360.1c-1.8.9-3.8,0-4.4-1.8-4.4-13.3-25.1-28.3-35.2-12.1-1.1,1.8-4.1,2.1-5.2,0-5.4-10.5-9.7-25.8-20.1-30.8-3.2-.1-6.4.9-8.7,3.1-3.7,3.4-4.7,9.4-2.4,13.8-7.8-5.6-20.1.3-22.5,9.6-2.4,9.3,3.5,19.3,11.8,24.1l113.7.8c-5.9-8.6-14.7-13.3-27-6.8Z"/>
        </g>
        <g class="cls-9">
          <path class="cls-5" d="M80.2,359.1c-8.5-8-25.4-10.6-34.3-1.8-1.5,1.5-4.5.9-5-1.3-2-8.6-9.4-18.4-18.4-19.2-1.2,1.6-2.1,3.3-2.6,5.2-2.4,9.3,3.5,19.3,11.8,24.1l54,.4c-1.4-2.7-3.2-5.2-5.5-7.3Z"/>
        </g>
        <g class="cls-11">
          <path class="cls-2" d="M37.9,361.3c.5,2.2,3.4,2.9,5,1.3,8.9-8.9,25.8-6.2,34.3,1.8.7.6,1.3,1.3,1.9,2h6.6c-1.4-2.7-3.2-5.2-5.5-7.3-8.5-8-25.4-10.6-34.3-1.8-1.5,1.5-4.5.9-5-1.3-2-8.6-9.4-18.4-18.4-19.2-1.2,1.6-2.1,3.3-2.6,5.2,0,0,0,0,0,.1,8.9,1.1,16.1,10.8,18,19.2Z"/>
        </g>
        <g class="cls-11">
          <path class="cls-2" d="M168.8,341.3c-4.8-8.4-16.5-12.1-25.2-7.9,1.8-5.4,0-11.8-4.2-15.7s-10.8-4.9-16-2.6c-2.4-11.3-9.3-21.9-19.3-27.8-10-5.8-23.3-6.4-33.2-.4-2.8,1.7-5.2,3.9-7.2,6.5.7-.6,1.5-1.1,2.3-1.6,9.9-6,23.1-5.5,33.2.4,10,5.8,16.9,16.4,19.3,27.8,5.2-2.3,11.8-1.2,16,2.6s5.9,10.2,4.2,15.7c8.7-4.2,20.5-.5,25.2,7.9,3.6,6.4,2.8,14.7-1.2,20.7,8-5.4,10.9-17.2,6.1-25.6Z"/>
        </g>
        <path class="cls-2" d="M44.9,306.5h39.4c-.2-1.1-1.7-2.3-3.7-2.6-2.6-.5-5.4,0-7.8.8,0-1.5-2-3-4.5-3.3s-5.4.7-6.3,2.1c-.2-1.7-.5-3.6-2.7-4.7-2.2-1.2-6-1.1-8.1.1-2.1,1.2-2.1,3.5,0,4.7-1.4-.6-3.3-.8-5-.4-1.6.4-2.9,1.4-2.6,2.4,0,.3.6.7,1.3.9Z"/>
        <path class="cls-2" d="M71.2,311.8h39.4c-.2-1.1-1.7-2.3-3.7-2.6-2.6-.5-5.4,0-7.8.8,0-1.5-2-3-4.5-3.3-2.6-.3-5.4.7-6.3,2.1-.2-1.7-.5-3.6-2.7-4.7-2.2-1.2-6-1.1-8.1.1s-2.1,3.5,0,4.7c-1.4-.6-3.3-.8-5-.4-1.6.4-2.9,1.4-2.6,2.4,0,.3.6.7,1.3.9Z"/>
        <path class="cls-2" d="M107.7,361h50.5c-.2-1.5-2.2-2.9-4.7-3.4-3.3-.6-7,0-10,1.1.1-2-2.5-3.9-5.8-4.2-3.3-.4-6.9.9-8,2.7-.3-2.2-.7-4.5-3.4-6-2.8-1.5-7.7-1.4-10.3.2-2.7,1.6-2.7,4.4,0,6-1.9-.7-4.3-1-6.4-.6-2.1.4-3.7,1.7-3.4,3,0,.4.8.8,1.6,1.2Z"/>
        <path class="cls-2" d="M111.6,306.1h18c0-.8-.8-1.6-1.7-1.8-1.2-.3-2.5,0-3.6.6,0-1.1-.9-2.1-2.1-2.3s-2.5.5-2.9,1.5c0-1.2-.3-2.5-1.2-3.3-1-.8-2.7-.8-3.7,0-.9.9-.9,2.4,0,3.3-.7-.4-1.5-.6-2.3-.3-.7.2-1.3.9-1.2,1.6,0,.2.3.5.6.7Z"/>
        <path class="cls-2" d="M22.5,333.4h31.1c-.1-1.4-1.4-2.7-2.9-3.2-2-.6-4.3,0-6.2,1,0-1.9-1.5-3.6-3.6-4-2-.3-4.3.8-5,2.6-.2-2-.4-4.3-2.1-5.7-1.7-1.4-4.7-1.3-6.4.2s-1.6,4.2,0,5.7c-1.1-.7-2.6-1-3.9-.5-1.3.4-2.3,1.6-2.1,2.9,0,.4.5.8,1,1.1Z"/>
        <path class="cls-2" d="M89.2,351.8h18c0-.8-.8-1.6-1.7-1.8-1.2-.3-2.5,0-3.6.6,0-1.1-.9-2.1-2.1-2.3s-2.5.5-2.9,1.5c0-1.2-.3-2.5-1.2-3.3-1-.8-2.7-.8-3.7,0-.9.9-.9,2.4,0,3.3-.7-.4-1.5-.6-2.3-.3-.7.2-1.3.9-1.2,1.6,0,.2.3.5.6.7Z"/>
        <path class="cls-2" d="M65.4,321.3c8,0,14.6,6.1,14.8,14.2,0,0-2-.8-2-.8,5.4-5,15.1-8.2,19.7-.6-6.3-6.3-14.6-1.3-19.7,3.9-.2-1.4-.4-3.4-.6-4.9-1-6.1-6.4-10.1-12.1-11.8h0Z"/>
        <g class="cls-8">
          <path class="cls-5" d="M119.2,328.1c8.2-4.3,16.2,3,14.5,11.7-.6-1.2-1-2.5-1.6-3.7-2.3-5.6-7-7.6-12.9-8h0Z"/>
        </g>
        <g class="cls-8">
          <path class="cls-5" d="M87.3,291.7c7.9-4.8,16.4,2,15.2,10.8-.7-1.2-1.2-2.5-1.9-3.6-2.6-5.4-7.5-7.2-13.3-7.2h0Z"/>
        </g>
        <path class="cls-2" d="M152.2,325.9c2.3,0,2.3-3.6,0-3.6s-2.3,3.6,0,3.6h0Z"/>
        <path class="cls-2" d="M40.8,315.4c2.3,0,2.3-3.6,0-3.6s-2.3,3.6,0,3.6h0Z"/>
        <path class="cls-2" d="M120.6,299.4c2.3,0,2.3-3.6,0-3.6s-2.3,3.6,0,3.6h0Z"/>
        <path class="cls-2" d="M114.5,348.5c2.3,0,2.3-3.6,0-3.6s-2.3,3.6,0,3.6h0Z"/>
        <path class="cls-2" d="M28,355.3c2.3,0,2.3-3.6,0-3.6s-2.3,3.6,0,3.6h0Z"/>
        <path class="cls-2" d="M144.6,316.9c2.3,0,2.3-3.6,0-3.6s-2.3,3.6,0,3.6h0Z"/>
      </g>
      <g>
        <g class="cls-11">
          <path class="cls-2" d="M965.5,798.2c-8.3-4.8-14.1-14.8-11.8-24.1,2.4-9.3,14.7-15.3,22.5-9.6-2.3-4.5-1.2-10.4,2.4-13.8,3.7-3.4,9.6-4.1,14-1.5-3.4-11.1,2.2-23.9,12.1-30,9.9-6,23.1-5.5,33.2.4,10,5.8,16.9,16.4,19.3,27.8,5.2-2.3,11.8-1.2,16,2.6,4.2,3.8,5.9,10.2,4.2,15.7,8.7-4.2,20.5-.5,25.2,7.9,4.8,8.4,1.9,20.4-6.2,25.7l-130.9-.9Z"/>
        </g>
        <g class="cls-7">
          <path class="cls-5" d="M1052.1,792.2c-1.8.9-3.8,0-4.4-1.8-4.4-13.3-25.1-28.3-35.2-12.1-1.1,1.8-4.1,2.1-5.2,0-5.4-10.5-9.7-25.8-20.1-30.8-3.2-.1-6.4.9-8.7,3.1-3.7,3.4-4.7,9.4-2.4,13.8-7.8-5.6-20.1.3-22.5,9.6-2.4,9.3,3.5,19.3,11.8,24.1l113.7.8c-5.9-8.6-14.7-13.3-27-6.8Z"/>
        </g>
        <g class="cls-9">
          <path class="cls-5" d="M1014,791.2c-8.5-8-25.4-10.6-34.3-1.8-1.5,1.5-4.5.9-5-1.3-2-8.6-9.4-18.4-18.4-19.2-1.2,1.6-2.1,3.3-2.6,5.2-2.4,9.3,3.5,19.3,11.8,24.1l54,.4c-1.4-2.7-3.2-5.2-5.5-7.3Z"/>
        </g>
        <g class="cls-11">
          <path class="cls-2" d="M971.7,793.4c.5,2.2,3.4,2.9,5,1.3,8.9-8.9,25.8-6.2,34.3,1.8.7.6,1.3,1.3,1.9,2h6.6c-1.4-2.7-3.2-5.2-5.5-7.3-8.5-8-25.4-10.6-34.3-1.8-1.5,1.5-4.5.9-5-1.3-2-8.6-9.4-18.4-18.4-19.2-1.2,1.6-2.1,3.3-2.6,5.2,0,0,0,0,0,.1,8.9,1.1,16.1,10.8,18,19.2Z"/>
        </g>
        <g class="cls-11">
          <path class="cls-2" d="M1102.6,773.4c-4.8-8.4-16.5-12.1-25.2-7.9,1.8-5.4,0-11.8-4.2-15.7-4.2-3.8-10.8-4.9-16-2.6-2.4-11.3-9.3-21.9-19.3-27.8-10-5.8-23.3-6.4-33.2-.4-2.8,1.7-5.2,3.9-7.2,6.5.7-.6,1.5-1.1,2.3-1.6,9.9-6,23.1-5.5,33.2.4,10,5.8,16.9,16.4,19.3,27.8,5.2-2.3,11.8-1.2,16,2.6s5.9,10.2,4.2,15.7c8.7-4.2,20.5-.5,25.2,7.9,3.6,6.4,2.8,14.7-1.2,20.7,8-5.4,10.9-17.2,6.1-25.6Z"/>
        </g>
        <path class="cls-2" d="M978.7,738.6h39.4c-.2-1.1-1.7-2.3-3.7-2.6-2.6-.5-5.4,0-7.8.8,0-1.5-2-3-4.5-3.3s-5.4.7-6.3,2.1c-.2-1.7-.5-3.6-2.7-4.7-2.2-1.2-6-1.1-8.1.1-2.1,1.2-2.1,3.5,0,4.7-1.4-.6-3.3-.8-5-.4-1.6.4-2.9,1.4-2.6,2.4,0,.3.6.7,1.3.9Z"/>
        <path class="cls-2" d="M1005,743.9h39.4c-.2-1.1-1.7-2.3-3.7-2.6-2.6-.5-5.4,0-7.8.8,0-1.5-2-3-4.5-3.3-2.6-.3-5.4.7-6.3,2.1-.2-1.7-.5-3.6-2.7-4.7-2.2-1.2-6-1.1-8.1.1s-2.1,3.5,0,4.7c-1.4-.6-3.3-.8-5-.4-1.6.4-2.9,1.4-2.6,2.4,0,.3.6.7,1.3.9Z"/>
        <path class="cls-2" d="M1041.5,793h50.5c-.2-1.5-2.2-2.9-4.7-3.4-3.3-.6-7,0-10,1.1.1-2-2.5-3.9-5.8-4.2-3.3-.4-6.9.9-8,2.7-.3-2.2-.7-4.5-3.4-6-2.8-1.5-7.7-1.4-10.3.2-2.7,1.6-2.7,4.4,0,6-1.9-.7-4.3-1-6.4-.6-2.1.4-3.7,1.7-3.4,3,0,.4.8.8,1.6,1.2Z"/>
        <path class="cls-2" d="M1045.4,738.2h18c0-.8-.8-1.6-1.7-1.8-1.2-.3-2.5,0-3.6.6,0-1.1-.9-2.1-2.1-2.3s-2.5.5-2.9,1.5c0-1.2-.3-2.5-1.2-3.3-1-.8-2.7-.8-3.7,0-.9.9-.9,2.4,0,3.3-.7-.4-1.5-.6-2.3-.3-.7.2-1.3.9-1.2,1.6,0,.2.3.5.6.7Z"/>
        <path class="cls-2" d="M956.3,765.4h31.1c-.1-1.4-1.4-2.7-2.9-3.2-2-.6-4.3,0-6.2,1,0-1.9-1.5-3.6-3.6-4-2-.3-4.3.8-5,2.6-.2-2-.4-4.3-2.1-5.7-1.7-1.4-4.7-1.3-6.4.2s-1.6,4.2,0,5.7c-1.1-.7-2.6-1-3.9-.5-1.3.4-2.3,1.6-2.1,2.9,0,.4.5.8,1,1.1Z"/>
        <path class="cls-2" d="M1023,783.9h18c0-.8-.8-1.6-1.7-1.8-1.2-.3-2.5,0-3.6.6,0-1.1-.9-2.1-2.1-2.3s-2.5.5-2.9,1.5c0-1.2-.3-2.5-1.2-3.3-1-.8-2.7-.8-3.7,0-.9.9-.9,2.4,0,3.3-.7-.4-1.5-.6-2.3-.3-.7.2-1.3.9-1.2,1.6,0,.2.3.5.6.7Z"/>
        <path class="cls-2" d="M999.3,753.4c8,0,14.6,6.1,14.8,14.2,0,0-2-.8-2-.8,5.4-5,15.1-8.2,19.7-.6-6.3-6.3-14.6-1.3-19.7,3.9-.2-1.4-.4-3.4-.6-4.9-1-6.1-6.4-10.1-12.1-11.8h0Z"/>
        <g class="cls-8">
          <path class="cls-5" d="M1053,760.2c8.2-4.3,16.2,3,14.5,11.7-.6-1.2-1-2.5-1.6-3.7-2.3-5.6-7-7.6-12.9-8h0Z"/>
        </g>
        <g class="cls-8">
          <path class="cls-5" d="M1021.1,723.7c7.9-4.8,16.4,2,15.2,10.8-.7-1.2-1.2-2.5-1.9-3.6-2.6-5.4-7.5-7.2-13.3-7.2h0Z"/>
        </g>
        <path class="cls-2" d="M1086,758c2.3,0,2.3-3.6,0-3.6s-2.3,3.6,0,3.6h0Z"/>
        <path class="cls-2" d="M974.6,747.4c2.3,0,2.3-3.6,0-3.6s-2.3,3.6,0,3.6h0Z"/>
        <path class="cls-2" d="M1054.4,731.5c2.3,0,2.3-3.6,0-3.6s-2.3,3.6,0,3.6h0Z"/>
        <path class="cls-2" d="M1048.4,780.6c2.3,0,2.3-3.6,0-3.6s-2.3,3.6,0,3.6h0Z"/>
        <path class="cls-2" d="M961.8,787.3c2.3,0,2.3-3.6,0-3.6s-2.3,3.6,0,3.6h0Z"/>
        <path class="cls-2" d="M1078.5,748.9c2.3,0,2.3-3.6,0-3.6s-2.3,3.6,0,3.6h0Z"/>
      </g>
      <g>
        <path class="cls-2" d="M74.7,716.5h33c-.1-1-1.5-1.9-3.1-2.2-2.2-.4-4.6,0-6.5.7,0-1.3-1.6-2.5-3.8-2.8-2.2-.2-4.5.6-5.3,1.8-.2-1.4-.5-3-2.2-3.9-1.8-1-5-.9-6.8.1-1.7,1-1.7,2.9,0,3.9-1.2-.5-2.8-.7-4.2-.4-1.4.3-2.4,1.1-2.2,2,0,.3.5.5,1,.8Z"/>
        <path class="cls-2" d="M220.7,740.1h33c-.1-1-1.5-1.9-3.1-2.2-2.2-.4-4.6,0-6.5.7,0-1.3-1.6-2.5-3.8-2.8-2.2-.2-4.5.6-5.3,1.8-.2-1.4-.5-3-2.2-3.9-1.8-1-5-.9-6.8.1-1.7,1-1.7,2.9,0,3.9-1.2-.5-2.8-.7-4.2-.4-1.4.3-2.4,1.1-2.2,2,0,.3.5.5,1,.8Z"/>
        <path class="cls-2" d="M221.3,716.2h-16.9c0-1,.7-1.9,1.6-2.2,1.1-.4,2.3,0,3.3.7,0-1.3.8-2.5,1.9-2.8,1.1-.2,2.3.6,2.7,1.8,0-1.4.2-3,1.1-3.9.9-1,2.6-.9,3.4.1.9,1,.9,2.9,0,3.9.6-.5,1.4-.7,2.1-.4.7.3,1.2,1.1,1.1,2,0,.3-.3.5-.5.8Z"/>
        <path class="cls-2" d="M33.8,743h-16.9c0-1,.7-1.9,1.6-2.2,1.1-.4,2.3,0,3.3.7,0-1.3.8-2.5,1.9-2.8,1.1-.2,2.3.6,2.7,1.8,0-1.4.2-3,1.1-3.9.9-1,2.6-.9,3.4.1s.9,2.9,0,3.9c.6-.5,1.4-.7,2.1-.4.7.3,1.2,1.1,1.1,2,0,.3-.3.5-.5.8Z"/>
        <path class="cls-2" d="M14.1,758.5h33c-.1-1-1.5-1.9-3.1-2.2-2.2-.4-4.6,0-6.5.7,0-1.3-1.6-2.5-3.8-2.8-2.2-.2-4.5.6-5.3,1.8-.2-1.4-.5-3-2.2-3.9-1.8-1-5-.9-6.8.1-1.7,1-1.7,2.9,0,3.9-1.2-.5-2.8-.7-4.2-.4s-2.4,1.1-2.2,2c0,.3.5.5,1,.8Z"/>
        <g class="cls-11">
          <path class="cls-2" d="M29.6,758.8c-2.3-1.1-3.3-4.1-2.2-6.4,1.1-2.2,4.1-3.3,6.4-2.2-2.8-8-2-17.4,2.8-24.4,4.9-7,13.9-11,22.2-9.3,10.8,2.3,17.7,13.1,20.9,23.7,1.1-5.4,9.9-6.9,12.7-2.1.5-4.6,5.4-8.3,10-7.4-4.7-14.9,7.2-32.6,22.7-33.9,15.6-1.3,30.2,14.3,27.9,29.8,3-3.8,10.2-2.2,11.4,2.5,4.2-3,11.2,1,10.8,6.1,3.3-8.3,7.4-17.4,15.6-21,7.2-3.1,16.2-.7,21.6,5.1,5.4,5.8,7.2,14.4,5.5,22.1,4.7-4.8,13.1-5.3,18.3-1.1,5.2,4.2,6.5,12.6,2.7,18.1l-209.4.3Z"/>
        </g>
        <g class="cls-12">
          <path class="cls-5" d="M163,746.4c-1.1.5-2.8.4-3.4-.9-3.7-8.3-7.7-19.2-17.5-21.8-11.3-3.1-21,7.1-21.4,17.9,0,2-2.1,3-3.8,2.2-8.5-4.3-16.3-1.1-18.1,8.5-.4,2-2.9,2.2-4.2,1.1-5.9-4.8-13.1-1.4-12.5,5.5h102.1c-3.9-9.5-9.4-17.9-21.2-12.3Z"/>
        </g>
        <path class="cls-2" d="M83.8,758.8c2.4-2.8,6.9-3.3,10.9,0,0,0,0,0,0,0h3.6c.3-.3.5-.6.6-1.1,1.8-9.6,9.6-12.8,18.1-8.5,1.7.9,3.7-.2,3.8-2.2.3-10.7,10.1-20.9,21.4-17.9,9.7,2.7,13.7,13.6,17.5,21.8.6,1.3,2.3,1.4,3.4.9,9.5-4.5,14.9,0,18.7,6.8h2.6c-3.9-9.4-9.4-17.8-21.2-12.2-1.1.5-2.8.4-3.4-.9-3.7-8.3-7.7-19.2-17.5-21.8-11.3-3.1-21,7.1-21.4,17.9,0,2-2.1,3-3.8,2.2-8.5-4.3-16.3-1.1-18.1,8.5-.4,2-2.9,2.2-4.2,1.1-5.9-4.8-13.1-1.4-12.5,5.5h1.6Z"/>
        <g class="cls-1">
          <path class="cls-5" d="M149,752.4c-.6.3-1.5.2-1.8-.5-2-4.4-4.1-10.1-9.2-11.5-5.9-1.6-11.1,3.8-11.3,9.4,0,1-1.1,1.6-2,1.1-4.5-2.3-8.6-.6-9.5,4.5-.2,1.1-1.5,1.1-2.2.6-3.1-2.5-6.9-.7-6.6,2.9h53.8c-2-5-4.9-9.4-11.2-6.5Z"/>
        </g>
        <g class="cls-10">
          <path class="cls-5" d="M236.3,740.4c-5.2-4.2-13.6-3.7-18.3,1.1.1-.6.2-1.1.3-1.7-3.1,3.4-5.5,7.8-7,12.3-.5,1.5-2.2,2.3-3.7,1.5-6-3.5-13.8-3-13.5,4.9h44.9c3.7-5.6,2.5-14-2.7-18.2Z"/>
        </g>
        <g>
          <g class="cls-11">
            <path class="cls-2" d="M124.3,701.5c15.6-1.3,30.2,14.3,27.9,29.8,3-3.8,10.2-2.2,11.4,2.5,4.2-3,11.2,1,10.8,6.1,3.3-8.3,7.4-17.4,15.6-21,7.2-3.1,16.2-.7,21.6,5.1,5.4,5.8,7.2,14.4,5.5,22.1,4.7-4.8,13.1-5.3,18.3-1.1,3.3,2.7,5,7,4.9,11.2,2.1-5.4.5-12.1-4-15.7-5.2-4.2-13.6-3.7-18.3,1.1,1.7-7.7-.2-16.3-5.5-22.1-5.4-5.8-14.4-8.2-21.6-5.1-8.2,3.6-12.3,12.7-15.6,21,.4-5.2-6.6-9.1-10.8-6.1-1.1-4.7-8.4-6.3-11.4-2.5,2.3-15.5-12.3-31-27.9-29.8-12.3,1-22.3,12.3-23.6,24.3,3-10.2,12-18.9,22.7-19.8Z"/>
          </g>
          <g class="cls-11">
            <path class="cls-2" d="M32.8,754.9c-.6-1.6-1-3.3-1.2-5-1.7,0-3.5,1-4.2,2.6-.5,1.1-.5,2.4-.2,3.5,1.4-1.5,3.8-2.1,5.6-1.1Z"/>
          </g>
          <g class="cls-11">
            <path class="cls-2" d="M35.7,730.5c4.9-7,13.9-11,22.2-9.3,10.8,2.3,17.7,13.1,20.9,23.7,1.1-5.4,9.9-6.9,12.7-2.1.5-4.6,5.4-8.3,10-7.4-.5-1.5-.8-3.1-.9-4.7-4,.2-7.7,3.5-8.2,7.5-2.8-4.8-11.6-3.3-12.7,2.1-3.2-10.6-10.1-21.4-20.9-23.7-8.3-1.8-17.3,2.3-22.2,9.3-2.4,3.4-3.8,7.5-4.3,11.6.7-2.5,1.9-4.9,3.4-7.1Z"/>
          </g>
        </g>
        <path class="cls-3" d="M193.5,721.4s6.6.8,6.8,7.2c0,0,5.8-5.4,9.5-.7"/>
        <path class="cls-4" d="M225.6,749.6s3.4,1.2,2.8,4.7c0,0,3.7-2.2,5.2.8"/>
        <g class="cls-8">
          <path class="cls-5" d="M52,727c6.8-5.4,16.1-1.5,17.9,6.9.9,5.6-.5,1.5-2.2-.6-3.7-5.7-9-7-15.6-6.2h0Z"/>
        </g>
        <g class="cls-8">
          <path class="cls-5" d="M124.6,705.3c6.8-5.4,16.1-1.5,17.9,6.9.9,5.6-.5,1.5-2.2-.6-3.7-5.7-9-7-15.6-6.2h0Z"/>
        </g>
        <path class="cls-2" d="M95.5,723.1c1.9,0,1.9-3,0-3s-1.9,3,0,3h0Z"/>
        <path class="cls-2" d="M107.3,728.5c1.9,0,1.9-3,0-3s-1.9,3,0,3h0Z"/>
        <path class="cls-2" d="M174.4,724.9c1.9,0,1.9-3,0-3s-1.9,3,0,3h0Z"/>
        <path class="cls-2" d="M224.3,731.3c1.9,0,1.9-3,0-3s-1.9,3,0,3h0Z"/>
        <path class="cls-2" d="M110.9,765.7c1.9,0,1.9-3,0-3s-1.9,3,0,3h0Z"/>
        <path class="cls-2" d="M100.1,767.5c1.9,0,1.9-3,0-3s-1.9,3,0,3h0Z"/>
        <path class="cls-2" d="M154.7,765.3h-34.7c.1-2,1.5-3.9,3.3-4.5,2.3-.8,4.8,0,6.9,1.4,0-2.6,1.7-5.2,4-5.7,2.3-.5,4.8,1.2,5.5,3.7.2-2.9.5-6.1,2.4-8.1,1.9-2,5.3-1.9,7.1.2,1.8,2.1,1.8,6,0,8.1,1.3-1,2.9-1.4,4.4-.8s2.5,2.3,2.3,4.1c0,.5-.5,1.1-1.1,1.6Z"/>
      </g>
    </g>
  </g>
</svg>