<?xml version="1.0" encoding="UTF-8"?>
<svg xmlns="http://www.w3.org/2000/svg" version="1.1" viewBox="0 0 1200 800">
  <defs>
    <style>
      .cls-1 {
        opacity: .6;
      }

      .cls-2 {
        fill: #fff;
      }

      .cls-3 {
        opacity: .5;
      }

      .cls-4, .cls-5 {
        fill: none;
        stroke: #fff;
        stroke-miterlimit: 10;
      }

      .cls-6 {
        fill: #acccec;
      }

      .cls-7 {
        opacity: .7;
      }

      .cls-8 {
        opacity: .2;
      }

      .cls-9 {
        opacity: .4;
      }

      .cls-10 {
        opacity: .4;
      }

      .cls-5 {
        stroke-width: .5px;
      }

      .cls-11 {
        opacity: .4;
      }

      .cls-12 {
        opacity: .9;
      }

      .cls-13 {
        opacity: .3;
      }
    </style>
  </defs>
  <!-- Generator: Adobe Illustrator 28.7.1, SVG Export Plug-In . SVG Version: 1.2.0 Build 142)  -->
  <g>
    <g id="Layer_1">
      <g>
        <path class="cls-2" d="M569,645.6l37.8,1.4c-.2,1.1-1.8,2.2-3.7,2.5-2.5.4-5.2-.2-7.5-1.1,0,1.5-2,3-4.5,3.2-2.5.2-5.2-.9-5.9-2.4-.3,1.7-.7,3.6-2.7,4.6-2.1,1.1-5.8.9-7.7-.4-1.9-1.3-1.9-3.6.2-4.7-1.4.5-3.2.7-4.8.3s-2.7-1.5-2.4-2.5c0-.3.6-.6,1.2-.9Z"/>
        <g class="cls-12">
          <path class="cls-2" d="M633.6,617.3c-7.3,7.8-15.3,5.4-21.6-2.3-1.5-1.8-4.1-.9-4.8,1.1-6.5,18.7-27.1,28.7-41.2,12.3-1.4-1.6-4.3-1-4.8,1.1-3.1,12.1-5.6,27.1-17.6,33.1-5.1,2.5-11.8,3.7-18,2.8-2.7-2.2-4.7-5.4-5.4-8.8-2-9.3,3-18.9,9.7-25.2-5.7,3.4-13.5-2.4-13.9-9.2-.4-6.8,4.7-13,10.8-15.6l112.3,2.6c-1.4,2.9-3.2,5.7-5.4,8Z"/>
        </g>
        <g class="cls-9">
          <path class="cls-6" d="M560.7,685.8c6.8,1.5,13.2.4,17.4-5.5,1.4-1.7,2.5-3.7,3.8-5.8-.3,11.4-11.7,18.7-21.2,11.2h0Z"/>
        </g>
        <g class="cls-9">
          <path class="cls-6" d="M578,628c6.8,1.5,13.2.4,17.4-5.5,1.4-1.7,2.5-3.7,3.8-5.8-.3,11.4-11.7,18.7-21.2,11.2h0Z"/>
        </g>
        <path class="cls-2" d="M586.4,665.5c2.2,0,2.1,3.7-.1,3.6s-2.1-3.7.1-3.6h0Z"/>
        <path class="cls-2" d="M585,673.4c2.2,0,2.1,3.7-.1,3.6s-2.1-3.7.1-3.6h0Z"/>
        <path class="cls-2" d="M672.5,633.4c2.2,0,2.1,3.7-.1,3.6s-2.1-3.7.1-3.6h0Z"/>
        <path class="cls-2" d="M496.7,659.5c2.2,0,2.1,3.7-.1,3.6s-2.1-3.7.1-3.6h0Z"/>
        <path class="cls-2" d="M491.5,661.6c2.2,0,2.1,3.7-.1,3.6s-2.1-3.7.1-3.6h0Z"/>
        <path class="cls-2" d="M292.1,702.7h-12.9c0,1.2.6,2.3,1.2,2.6.9.5,1.8,0,2.6-.8,0,1.5.6,3,1.5,3.3.8.3,1.8-.7,2.1-2.1,0,1.7.2,3.6.9,4.7.7,1.2,2,1.1,2.6-.1.7-1.3.7-3.5,0-4.7.5.6,1.1.8,1.6.4.5-.4.9-1.4.9-2.4,0-.3-.2-.7-.4-.9Z"/>
        <path class="cls-2" d="M312.7,694.5c2.7,3.3,7.9,3.9,12.5,0,0,0,0,0,0,0h4.1c.3.3.6.8.7,1.4,2.1,11.6,10.9,15.4,20.7,10.2,2-1,4.2.2,4.3,2.6.4,12.9,11.6,25.2,24.5,21.5,11.2-3.2,15.7-16.3,20-26.3.7-1.6,2.6-1.7,3.9-1.1,10.8,5.4,17,0,21.4-8.2h3c-4.5,11.3-10.8,21.4-24.3,14.7-1.3-.6-3.2-.5-3.9,1.1-4.3,9.9-8.9,23.1-20,26.3-12.9,3.7-24.1-8.6-24.5-21.5,0-2.4-2.4-3.6-4.3-2.6-9.8,5.2-18.7,1.4-20.7-10.2-.4-2.4-3.3-2.6-4.8-1.3-6.7,5.7-15,1.7-14.3-6.6h1.9Z"/>
        <g class="cls-1">
          <path class="cls-6" d="M387.5,702.1c-.7-.3-1.7-.3-2.1.6-2.3,5.2-4.7,12.2-10.5,13.8-6.8,1.9-12.7-4.5-12.9-11.3,0-1.2-1.2-1.9-2.3-1.4-5.2,2.7-9.8.7-10.9-5.4-.2-1.3-1.7-1.4-2.5-.7-3.6,3-7.9.9-7.6-3.5h61.6c-2.3,6-5.7,11.4-12.8,7.8Z"/>
        </g>
        <g>
          <g class="cls-12">
            <path class="cls-2" d="M376.2,763.4c15.6,1.5,30.2-17.2,27.9-35.8,3,4.5,10.2,2.6,11.4-3,4.2,3.6,11.2-1.2,10.8-7.4,3.3,10,7.4,21,15.6,25.3,7.2,3.8,16.2.9,21.6-6.1,5.3-7,7.1-17.3,5.5-26.5,4.7,5.8,13.1,6.4,18.3,1.3,3.3-3.2,5-8.4,4.9-13.5,2.1,6.4.5,14.5-4,18.9-5.2,5.1-13.6,4.5-18.3-1.3,1.7,9.3-.2,19.6-5.5,26.5-5.3,7-14.3,9.9-21.6,6.1-8.2-4.3-12.3-15.3-15.6-25.3.4,6.2-6.6,11-10.8,7.4-1.1,5.6-8.3,7.6-11.4,3,2.3,18.6-12.3,37.3-27.9,35.8-12.3-1.2-22.3-14.8-23.6-29.3,3,12.3,12,22.7,22.7,23.8Z"/>
          </g>
          <g class="cls-12">
            <path class="cls-2" d="M284.8,699.2c-.6,1.9-1,3.9-1.2,6-1.7,0-3.5-1.2-4.2-3.1-.5-1.3-.5-2.8-.2-4.2,1.4,1.8,3.8,2.5,5.6,1.4Z"/>
          </g>
          <g class="cls-12">
            <path class="cls-2" d="M287.7,728.5c4.9,8.4,13.9,13.3,22.2,11.1,10.8-2.8,17.7-15.8,20.9-28.5,1.1,6.5,9.9,8.3,12.7,2.6.5,5.6,5.4,10,10,8.9-.5,1.8-.8,3.7-.9,5.6-4-.3-7.7-4.2-8.2-9-2.8,5.8-11.6,4-12.7-2.6-3.2,12.7-10.1,25.7-20.9,28.5-8.3,2.1-17.3-2.7-22.2-11.1-2.4-4.1-3.8-9-4.3-14,.7,3,1.9,5.9,3.4,8.5Z"/>
          </g>
        </g>
        <path class="cls-4" d="M445.4,739.5s6.6-.9,6.8-8.7c0,0,5.7,6.5,9.5.8"/>
        <path class="cls-5" d="M475.2,705.5s3.9-1.5,3.2-5.7c0,0,4.3,2.6,5.9-1"/>
        <g class="cls-9">
          <path class="cls-6" d="M304,732.6c6.7,1.4,11.6-.5,15-6.4,1.1-1.7,2-3.7,3.1-5.6.2,4.6-1.3,9.4-5,12.4-3.7,3.2-9.7,2.8-13.1-.4h0Z"/>
        </g>
        <g class="cls-9">
          <path class="cls-6" d="M376.5,758.8c6.7,1.4,11.6-.5,15-6.4,1.1-1.7,2-3.7,3.1-5.6.2,4.6-1.3,9.4-5,12.4-3.7,3.2-9.7,2.8-13.1-.4h0Z"/>
        </g>
        <path class="cls-2" d="M326.2,737.4c2.2,0,2.2,3.6,0,3.6s-2.2-3.6,0-3.6h0Z"/>
        <path class="cls-2" d="M339.7,730.8c2.2,0,2.2,3.6,0,3.6s-2.2-3.6,0-3.6h0Z"/>
        <path class="cls-2" d="M416.6,735.2c2.2,0,2.2,3.6,0,3.6s-2.2-3.6,0-3.6h0Z"/>
        <path class="cls-2" d="M473.7,727.6c2.2,0,2.2,3.6,0,3.6s-2.2-3.6,0-3.6h0Z"/>
        <path class="cls-2" d="M343.9,686.1c2.2,0,2.2,3.6,0,3.6s-2.2-3.6,0-3.6h0Z"/>
        <path class="cls-2" d="M331.4,683.9c2.2,0,2.2,3.6,0,3.6s-2.2-3.6,0-3.6h0Z"/>
        <g class="cls-12">
          <path class="cls-2" d="M307.4,623.7c6,2.8,10.9,9.1,10.2,16-.7,6.8-8.6,12.3-14.2,8.7,6.5,6.6,11.1,16.4,8.8,25.6-2.3,9.2-13.8,15.5-21.1,9.8,3.9,11.8-1.8,26-12.2,32.1-10.4,6.1-24.2,4.3-33.5-3.5-9.3-7.8-14-20.9-12.9-33.4-6.7,3.6-15.5,2.2-20.9-3.3-5.4-5.5-6.9-14.8-3.6-21.9-5.5,4.4-12.6,7.3-19.3,5.5-6.7-1.8-12-9.8-9.3-16.5-7.5,8.1-19.8,12-29.4,7.1s-14-19.9-6.8-28.4l164.2,2.2Z"/>
        </g>
        <path class="cls-2" d="M283.2,642.4h-37.8c.2,1.2,1.7,2.3,3.6,2.6,2.5.5,5.2,0,7.5-.8,0,1.5,1.9,3,4.4,3.3,2.5.3,5.2-.7,6-2.1.2,1.7.5,3.6,2.6,4.7,2.1,1.2,5.7,1.1,7.7-.1,2-1.3,2-3.5,0-4.7,1.4.6,3.2.8,4.8.4s2.8-1.4,2.5-2.4c0-.3-.6-.7-1.2-.9Z"/>
        <g class="cls-12">
          <path class="cls-2" d="M200.2,630.3c7,8,15.1,5.9,21.7-1.5,1.5-1.7,4.2-.8,4.8,1.3,5.8,18.9,26,29.7,40.7,13.8,1.5-1.6,4.3-.9,4.8,1.3,2.7,12.2,4.6,27.3,16.4,33.7,5,2.7,11.6,4.1,17.9,3.5,2.7-2.1,4.9-5.2,5.8-8.6,2.3-9.2-2.3-19-8.8-25.6,5.6,3.6,13.5-1.9,14.2-8.7.7-6.8-4.2-13.2-10.2-16l-112.3-1.5c1.3,3,3,5.8,5.1,8.2Z"/>
        </g>
        <g class="cls-12">
          <path class="cls-2" d="M150,649.8c9.7,4.9,22,1,29.4-7.1-2.7,6.7,2.6,14.7,9.3,16.5,6.7,1.8,13.8-1.2,19.3-5.5-3.3,7.1-1.8,16.4,3.6,21.9,5.4,5.5,14.2,6.9,20.9,3.3-1.1,12.5,3.6,25.6,12.9,33.4,9.3,7.8,23.1,9.6,33.5,3.5,3.3-2,6.2-4.8,8.4-8.1-.6.4-1.3.9-1.9,1.3-10.4,6.1-24.2,4.3-33.5-3.5-9.3-7.8-14-20.9-12.9-33.4-6.7,3.6-15.5,2.2-20.9-3.3-5.4-5.5-6.9-14.8-3.6-21.9-5.5,4.4-12.6,7.3-19.3,5.5-6.7-1.8-12-9.8-9.3-16.5-7.5,8.1-19.8,12-29.4,7.1-7.4-3.8-11.7-13.4-10.1-21.5h-3.3c-7.2,8.4-2.8,23.4,6.8,28.3Z"/>
        </g>
        <path class="cls-2" d="M302,634.1c1.4.7,3.1.1,4.1-1-.4.9.4,2.1,1.3,2.3.9.3,1.9-.2,2.7-.8-.5,1-.3,2.3.5,3.1.8.8,2,1,2.9.5-.1,1.7.5,3.6,1.8,4.7,1.1.9,2.6,1.2,3.9.8,1.2.2,2.5-.1,3.5-.9,1.3-1.1,2-2.9,1.8-4.7.9.5,2.2.3,2.9-.5.8-.8,1-2.1.5-3.1.8.6,1.8,1,2.7.8.9-.3,1.7-1.4,1.3-2.3,1,1.1,2.8,1.7,4.1,1,1.4-.7,2-2.8,1-4l-21.6.3-14.5-.2c-1,1.2-.4,3.3,1,4Z"/>
        <path class="cls-2" d="M234.5,678.5h-17.4c.2,0,.3-.3.3-.5.1-1-.5-2-1.3-2.4-.8-.4-1.7-.1-2.4.4,1-1.3,1-3.5,0-4.7s-2.9-1.3-3.9-.1c-1,1.2-1.2,3-1.3,4.7-.4-1.5-1.8-2.4-3.1-2.1-1.3.3-2.3,1.8-2.2,3.3-1.2-.8-2.6-1.3-3.8-.8-1,.4-1.7,1.5-1.8,2.6h.6c-.4.7.2,1.5,1.3,1.8,1.4.4,3.1,0,4.1-.6-.4.5.4,1.2,1.3,1.3.9.1,1.9,0,2.7-.4-.5.6-.3,1.3.5,1.7.8.4,2,.5,2.9.3-.1,1,.5,2,1.8,2.6,1.1.5,2.6.7,3.9.5,1.2.1,2.5,0,3.5-.5,1.3-.6,2-1.7,1.8-2.6.9.3,2.2.2,2.9-.3.8-.4,1-1.2.5-1.7.8.3,1.8.6,2.7.4.9-.1,1.7-.8,1.3-1.3,1,.6,2.8,1,4.1.6,1.4-.4,2-1.6,1-2.2Z"/>
        <g>
          <g class="cls-12">
            <path class="cls-2" d="M324,694.7c2.1-2.2,2.9-5.9,1.3-8.4-1.6-2.6-5.9-2.9-7.3-.2,1.1-3.5,0-7.7-2.8-10.1-2.8-2.3-6.9-2.6-10-.7-3,1.9-4.7,5.9-4.1,9.6-1.1-3.2-5.4-4.5-8.2-2.8-2.9,1.7-4.2,5.5-3.7,8.9-.3-2.6-3.4-4.3-5.5-3.1-2.2,1.2-2.6,4.8-.7,6.5l41.1.2Z"/>
          </g>
          <g>
            <path class="cls-2" d="M289.2,692.9c-.3-2.6-3.4-4.3-5.5-3.1-1,.5-1.6,1.5-1.8,2.6-.4-1.7.3-3.7,1.8-4.5,2.1-1.1,4.9.3,5.5,2.7,0,.8,0,1.5,0,2.3Z"/>
            <path class="cls-2" d="M301.1,686.7c-1.1-3.2-5.4-4.5-8.2-2.8-2.2,1.3-3.5,3.9-3.7,6.5-.3-3.3,1-6.8,3.7-8.4,2.8-1.6,6.8-.6,8.1,2.4,0,.7,0,1.5.1,2.2Z"/>
            <path class="cls-2" d="M315.2,677.8c-2.8-2.3-6.9-2.6-10-.7-2.3,1.5-3.9,4.2-4.2,7-.4-3.5,1.3-7.1,4.2-8.9,3-1.9,7.2-1.6,10,.7,2.3,1.9,3.5,5.2,3.2,8.2-.2-2.4-1.4-4.8-3.2-6.3Z"/>
          </g>
        </g>
        <g>
          <g class="cls-12">
            <path class="cls-2" d="M143.2,655c-1.6,1.7-2.2,4.5-1,6.5,1.2,2,4.5,2.2,5.6.2-.9,2.7,0,5.9,2.1,7.7s5.3,2,7.6.5c2.3-1.5,3.6-4.5,3.1-7.3.9,2.5,4.1,3.4,6.3,2.1s3.2-4.2,2.8-6.8c.2,2,2.6,3.3,4.2,2.3,1.7-.9,2-3.7.5-5h-31.4Z"/>
          </g>
          <g>
            <path class="cls-2" d="M169.9,656.4c.2,2,2.6,3.3,4.2,2.3.7-.4,1.2-1.2,1.4-2,.3,1.3-.2,2.8-1.4,3.5-1.6.9-3.8-.3-4.2-2.1,0-.6,0-1.2,0-1.7Z"/>
            <path class="cls-2" d="M160.8,661.1c.9,2.5,4.1,3.4,6.3,2.1,1.7-1,2.7-3,2.8-5,.2,2.5-.8,5.2-2.8,6.5-2.1,1.3-5.2.4-6.2-1.9,0-.6,0-1.1,0-1.7Z"/>
            <path class="cls-2" d="M150,667.9c2.1,1.8,5.3,2,7.6.5,1.8-1.1,3-3.2,3.2-5.4.3,2.7-1,5.5-3.2,6.8-2.3,1.5-5.5,1.2-7.6-.5-1.8-1.5-2.7-4-2.4-6.3.2,1.9,1,3.7,2.4,4.8Z"/>
          </g>
        </g>
        <g class="cls-9">
          <path class="cls-6" d="M270.4,701.5c-9.8,7.1-20.9-.6-20.8-12,1.2,2.1,2.3,4.1,3.6,5.9,4,6,10.3,7.3,17.2,6.1h0Z"/>
        </g>
        <g class="cls-9">
          <path class="cls-6" d="M255.3,643.1c-9.8,7.1-20.9-.6-20.8-12,1.2,2.1,2.3,4.1,3.6,5.9,4,6,10.3,7.3,17.2,6.1h0Z"/>
        </g>
        <path class="cls-2" d="M245.6,680.2c-2.2,0-2.2,3.6,0,3.6s2.2-3.6,0-3.6h0Z"/>
        <path class="cls-2" d="M226.8,690.1c-2.2,0-2.2,3.6,0,3.6s2.2-3.6,0-3.6h0Z"/>
        <path class="cls-2" d="M140.9,646.9c-2.2,0-2.2,3.6,0,3.6s2.2-3.6,0-3.6h0Z"/>
        <path class="cls-2" d="M315.6,679.5c-2.2,0-2.2,3.6,0,3.6s2.2-3.6,0-3.6h0Z"/>
        <path class="cls-2" d="M320.7,681.8c-2.2,0-2.2,3.6,0,3.6s2.2-3.6,0-3.6h0Z"/>
        <g class="cls-12">
          <path class="cls-2" d="M659.4,641.1c-8.9,9.4-12.5,25.4-5.5,36.5,7,11.1,25.5,12.5,31.8.9-4.9,15.3.1,33.5,12.1,43.6,12,10.1,30,11.4,43.2,3.1,13.2-8.3,20.5-25.7,17.6-41.5,4.8,14,23.3,19.3,35.7,11.9,12.4-7.4,18-23.9,15.8-38.7,1.2,11.1,14.6,18.4,23.9,13.2,9.4-5.2,11.1-20.9,3-28.2l-177.7-.8Z"/>
        </g>
        <g>
          <path class="cls-2" d="M776.5,659.1c6.9-4.3,10.7-10.5,13.2-17.5h4.8c-2.3,8.6-6.2,16.3-14.3,21.3-11.2,7-28.5,9.1-36.7-2.4,9,7,23.3,4.6,33.1-1.4Z"/>
          <path class="cls-2" d="M732,653.7c.2-2.6,4.1-4.5,5.3-1.5.3.8.7,1.6,1.1,2.3-1.4.2-2.7,1.5-2.8,3-1.5,24.3-31.6,54-51.7,32.4,0-.2,0-.3,0-.5,19.9,14.8,46.7-12.8,48.1-35.7Z"/>
          <path class="cls-2" d="M682.1,674.6c-1,3.1-1.5,6.2-1.8,9.4-8,4.8-20.1,2.4-25.9-5.8,8.5,6.7,22.4,6.1,27.7-3.7Z"/>
        </g>
        <path class="cls-6" d="M812.7,655.9c7.5,7.9,18,12.2,26.7,2.8,1-1.1,2-2.4,2.8-3.6-.2,6.1-3,12.1-8.1,15-8.8,4.9-21-1.2-23.5-11.1.8-1,1.5-2,2.2-3Z"/>
        <g>
          <path class="cls-2" d="M810.1,648.6c1.2,11.1,14.6,18.4,23.9,13.2,4.1-2.3,6.8-6.7,7.7-11.4,1.5,7.4-1.3,16-7.7,19.6-8.9,5-21.4-1.5-23.7-11.6.3-3.3.2-6.6-.3-9.8Z"/>
          <path class="cls-2" d="M758.6,675.4c4.8,14,23.3,19.3,35.7,11.9,9.5-5.7,15-16.8,16.1-28.3,1.3,14.2-4.3,29.5-16.1,36.5-11.9,7.1-29.6,2.5-35.1-10.5.2-3.2,0-6.4-.5-9.6Z"/>
          <path class="cls-2" d="M697.8,713.8c12,10.1,30,11.4,43.2,3.1,10.1-6.4,16.8-18.1,18-30.4,1.6,15-5.6,30.8-18,38.6-13.2,8.3-31.2,7.1-43.2-3.1-9.9-8.4-15.1-22.3-13.8-35.6,1,10.5,5.9,20.7,13.8,27.4Z"/>
        </g>
        <path class="cls-2" d="M670.5,670.5c5.8-1.6,11.3-5.4,13.2-11.3,1-2.5,1-5.3,1.3-7.9,5.8,6,15.3,11.4,22.1,3.7-5.3,8.8-16,5-22.1-.8,0,0,1.7-.7,1.7-.7-.2,9.2-7.1,16.4-16.3,17h0Z"/>
        <g class="cls-9">
          <path class="cls-6" d="M722.9,709.9c6.8,1.2,13.2-.1,17.2-6.1,1.3-1.8,2.4-3.8,3.6-5.9,0,11.4-11,19.1-20.8,12h0Z"/>
        </g>
        <path class="cls-2" d="M814.3,683c2.2,0,2.2,3.6,0,3.6s-2.2-3.6,0-3.6h0Z"/>
        <path class="cls-2" d="M754.1,728.1c2.2,0,2.2,3.6,0,3.6s-2.2-3.6,0-3.6h0Z"/>
        <path class="cls-2" d="M763.4,723.7c2.2,0,2.2,3.6,0,3.6s-2.2-3.6,0-3.6h0Z"/>
        <path class="cls-2" d="M674.1,692.8c2.2,0,2.2,3.6,0,3.6s-2.2-3.6,0-3.6h0Z"/>
        <path class="cls-2" d="M829.9,652.8c2.2,0,2.2,3.6,0,3.6s-2.2-3.6,0-3.6h0Z"/>
        <path class="cls-2" d="M801.9,668.8c2.2,0,2.2,3.6,0,3.6s-2.2-3.6,0-3.6h0Z"/>
        <g>
          <path class="cls-2" d="M925.3,639.7l-37.8-.4c.1,1.2,1.7,2.3,3.5,2.7,2.5.5,5.2,0,7.5-.8,0,1.5,1.8,3.1,4.3,3.4,2.5.3,5.2-.6,6-2.1.2,1.7.5,3.6,2.5,4.8,2.1,1.2,5.7,1.2,7.7,0,2-1.2,2-3.5,0-4.7,1.4.6,3.2.8,4.8.5,1.6-.3,2.8-1.3,2.5-2.4,0-.3-.6-.7-1.2-1Z"/>
          <path class="cls-2" d="M857.8,660.6l-37.8-.4c.1,1.2,1.7,2.3,3.5,2.7,2.5.5,5.2,0,7.5-.8,0,1.5,1.8,3.1,4.3,3.4,2.5.3,5.2-.6,6-2.1.2,1.7.5,3.6,2.5,4.8,2.1,1.2,5.7,1.2,7.7,0,2-1.2,2-3.5,0-4.7,1.4.6,3.2.8,4.8.5,1.6-.3,2.8-1.3,2.5-2.4,0-.3-.6-.7-1.2-1Z"/>
          <path class="cls-2" d="M899.6,639.4l19.3.2c0,1.1-.9,2.3-1.8,2.6-1.3.5-2.7,0-3.8-.9,0,1.5-1,3-2.3,3.3-1.3.3-2.6-.7-3.1-2.2-.1,1.7-.3,3.6-1.4,4.7-1.1,1.2-2.9,1.1-3.9-.2-1-1.3-1-3.5,0-4.7-.7.6-1.6.8-2.4.4-.8-.4-1.4-1.4-1.3-2.4,0-.3.3-.7.6-.9Z"/>
          <path class="cls-2" d="M1071.9,659.2l19.3.2c0,1.1-.9,2.3-1.8,2.6-1.3.5-2.7,0-3.8-.9,0,1.5-1,3-2.3,3.3-1.3.3-2.6-.7-3.1-2.2-.1,1.7-.3,3.6-1.4,4.7-1.1,1.2-2.9,1.1-3.9-.2s-1-3.5,0-4.7c-.7.6-1.6.8-2.4.4-.8-.4-1.4-1.4-1.3-2.4,0-.3.3-.7.6-.9Z"/>
          <path class="cls-2" d="M1094.7,640.9l-37.8-.4c.1,1.2,1.7,2.3,3.5,2.7,2.5.5,5.2,0,7.5-.8,0,1.5,1.8,3.1,4.3,3.4,2.5.3,5.2-.6,6-2.1.2,1.7.5,3.6,2.5,4.8,2.1,1.2,5.7,1.2,7.7,0,2-1.2,2-3.5,0-4.7,1.4.6,3.2.8,4.8.5s2.8-1.3,2.5-2.4c0-.3-.6-.7-1.2-1Z"/>
          <g class="cls-12">
            <path class="cls-2" d="M1077,640.3c2.6,1.3,3.8,5,2.5,7.7-1.3,2.7-4.8,3.9-7.3,2.5,3.1,9.7,2.1,21-3.6,29.3-5.6,8.3-16,13.1-25.5,10.9-12.4-2.9-20.1-16-23.7-28.7-1.3,6.5-11.4,8.2-14.6,2.4-.6,5.6-6.3,9.9-11.6,8.8,5.2,18-8.6,39.2-26.4,40.5-17.9,1.3-34.4-17.6-31.6-36.1-3.5,4.5-11.8,2.5-13-3.2-4.9,3.5-12.8-1.3-12.3-7.5-3.9,10-8.7,20.9-18.1,25.1-8.3,3.7-18.6.7-24.7-6.3-6.1-7-8-17.4-6-26.6-5.4,5.7-15.1,6.2-21,1.1-5.9-5.1-7.3-15.2-2.9-21.8l239.9,2Z"/>
          </g>
          <g class="cls-13">
            <path class="cls-6" d="M924,653.7c1.3-.6,3.2-.5,3.9,1.1,4.2,10,8.6,23.2,19.8,26.5,12.9,3.8,24.2-8.3,24.7-21.2,0-2.4,2.4-3.6,4.3-2.6,9.7,5.3,18.6,1.5,20.8-10,.5-2.4,3.3-2.6,4.8-1.3,6.7,5.8,15,1.8,14.4-6.5l-116.9-1c4.3,11.4,10.6,21.5,24.2,14.9Z"/>
          </g>
          <path class="cls-2" d="M1014.9,639.7c-2.8,3.3-8,3.8-12.5,0,0,0,0,0,0,0h-4.1c-.3.3-.6.7-.7,1.3-2.2,11.5-11.1,15.3-20.8,10-1.9-1.1-4.2.2-4.3,2.6-.5,12.9-11.8,25.1-24.7,21.2-11.1-3.3-15.6-16.5-19.8-26.5-.7-1.6-2.6-1.7-3.9-1.1-10.9,5.3-17-.2-21.3-8.4h-3c4.3,11.3,10.6,21.5,24.2,14.9,1.3-.6,3.2-.5,3.9,1.1,4.2,10,8.6,23.2,19.8,26.5,12.9,3.8,24.2-8.3,24.7-21.2,0-2.4,2.4-3.6,4.3-2.6,9.7,5.3,18.6,1.5,20.8-10,.5-2.4,3.3-2.6,4.8-1.3,6.7,5.8,15,1.8,14.4-6.5h-1.9Z"/>
          <g class="cls-12">
            <path class="cls-2" d="M940.1,646.6c.7-.3,1.7-.2,2.1.6,2.2,5.3,4.6,12.2,10.4,13.9,6.8,2,12.7-4.4,13-11.2,0-1.2,1.3-1.9,2.3-1.3,5.1,2.8,9.8.8,11-5.3.2-1.3,1.7-1.4,2.5-.7,3.5,3.1,7.9,1,7.6-3.4l-61.6-.5c2.3,6,5.6,11.3,12.7,7.9Z"/>
          </g>
          <g class="cls-11">
            <path class="cls-6" d="M840,660.1c5.9,5.1,15.6,4.6,21-1.1-.1.7-.3,1.3-.4,2,3.6-4.1,6.4-9.3,8.1-14.7.6-1.8,2.6-2.8,4.2-1.8,6.9,4.3,15.8,3.7,15.6-5.8l-51.4-.4c-4.3,6.7-3,16.7,2.9,21.8Z"/>
          </g>
          <g>
            <g class="cls-12">
              <path class="cls-2" d="M967.8,708.2c-17.9,1.3-34.4-17.6-31.6-36.1-3.5,4.5-11.8,2.5-13-3.2-4.9,3.5-12.8-1.3-12.3-7.5-3.9,10-8.7,20.9-18.1,25.1-8.3,3.7-18.6.7-24.7-6.3-6.1-7-8-17.4-6-26.6-5.4,5.7-15.1,6.2-21,1.1-3.7-3.2-5.6-8.4-5.4-13.5-2.4,6.4-.8,14.5,4.4,19,5.9,5.1,15.6,4.6,21-1.1-2,9.2,0,19.6,6,26.6,6.1,7,16.3,10,24.7,6.3,9.5-4.2,14.2-15.1,18.1-25.1-.5,6.2,7.4,11.1,12.3,7.5,1.2,5.7,9.5,7.7,13,3.2-2.8,18.6,13.8,37.5,31.6,36.1,14.1-1.1,25.7-14.5,27.4-29-3.5,12.2-14,22.6-26.3,23.5Z"/>
            </g>
            <g class="cls-12">
              <path class="cls-2" d="M1073.2,645c.6,1.9,1.1,4,1.4,6,2,0,4-1.2,4.9-3.1.6-1.3.7-2.8.2-4.2-1.6,1.8-4.4,2.4-6.5,1.3Z"/>
            </g>
            <g class="cls-12">
              <path class="cls-2" d="M1069.7,674.3c-5.6,8.3-16,13.1-25.5,10.9-12.4-2.9-20.1-16-23.7-28.7-1.3,6.5-11.4,8.2-14.6,2.4-.6,5.6-6.3,9.9-11.6,8.8.5,1.8.9,3.7,1,5.6,4.6-.2,8.9-4.1,9.5-8.9,3.2,5.8,13.3,4.1,14.6-2.4,3.6,12.8,11.4,25.8,23.7,28.7,9.5,2.2,19.9-2.6,25.5-10.9,2.8-4.1,4.4-8.9,5-13.9-.9,3-2.2,5.9-3.9,8.5Z"/>
            </g>
          </g>
          <path class="cls-4" d="M888.8,683.5s-7.5-1-7.7-8.8c0,0-6.7,6.4-10.9.7"/>
          <path class="cls-5" d="M852.3,649.1s-3.9-1.5-3.1-5.7c0,0-4.3,2.6-5.9-1"/>
          <g class="cls-9">
            <path class="cls-6" d="M1050.9,678.3c-9.9,7-20.9-.8-20.7-12.2,1.2,2.1,2.2,4.1,3.6,5.9,3.9,6,10.3,7.4,17.1,6.3h0Z"/>
          </g>
          <g class="cls-9">
            <path class="cls-6" d="M967.6,703.6c-9.9,7-20.9-.8-20.7-12.2,1.2,2.1,2.3,4.1,3.6,5.9,3.9,6,10.3,7.4,17.1,6.3h0Z"/>
          </g>
          <path class="cls-2" d="M1001,682.5c-2.2,0-2.3,3.6,0,3.6s2.3-3.6,0-3.6h0Z"/>
          <path class="cls-2" d="M987.6,675.8c-2.2,0-2.3,3.6,0,3.6s2.3-3.6,0-3.6h0Z"/>
          <path class="cls-2" d="M910.7,679.4c-2.2,0-2.3,3.6,0,3.6s2.3-3.6,0-3.6h0Z"/>
          <path class="cls-2" d="M853.6,671.3c-2.2,0-2.3,3.6,0,3.6s2.3-3.6,0-3.6h0Z"/>
          <path class="cls-2" d="M983.9,631.1c-2.2,0-2.3,3.6,0,3.6s2.3-3.6,0-3.6h0Z"/>
          <path class="cls-2" d="M996.3,629c-2.2,0-2.3,3.6,0,3.6s2.3-3.6,0-3.6h0Z"/>
        </g>
        <g class="cls-3">
          <path class="cls-2" d="M148.3,648.6c-3.8-3.2-5.3-8.6-2.3-12.4,3-3.8,10.7-4.2,13.4-.3-2.1-5.2,0-11.4,5.1-14.8,5-3.4,12.6-3.9,18.2-1,5.5,2.8,8.6,8.7,7.4,14.1,2-4.8,9.8-6.6,15-4.1,5.2,2.5,7.6,8.1,6.7,13.1.5-3.8,6.1-6.3,10.1-4.5,3.9,1.8,4.7,7.1,1.3,9.6l-74.8.3Z"/>
        </g>
        <g class="cls-3">
          <path class="cls-2" d="M711,637.8c3.8-3.2,5.3-8.6,2.3-12.4-3-3.8-10.7-4.2-13.4-.3,2.1-5.2,0-11.4-5.1-14.8-5-3.4-12.6-3.9-18.2-1-5.5,2.8-8.6,8.7-7.4,14.1-2-4.8-9.8-6.6-15-4.1-5.2,2.5-7.6,8.1-6.7,13.1-.5-3.8-6.1-6.3-10.1-4.5s-4.7,7.1-1.3,9.6l74.8.3Z"/>
        </g>
        <g class="cls-3">
          <path class="cls-2" d="M560.5,654.6c3.8-3.2,5.3-8.6,2.3-12.4-3-3.8-10.7-4.2-13.4-.3,2.1-5.2,0-11.4-5.1-14.8-5-3.4-12.6-3.9-18.2-1-5.5,2.8-8.6,8.7-7.4,14.1-2-4.8-9.8-6.6-15-4.1s-7.6,8.1-6.7,13.1c-.5-3.8-6.1-6.3-10.1-4.5-3.9,1.8-4.7,7.1-1.3,9.6l74.8.3Z"/>
        </g>
        <g class="cls-3">
          <path class="cls-2" d="M668.1,696.1c-3.9-1.8-9.6.7-10.1,4.5.9-5-1.5-10.6-6.7-13.1-3.7-1.8-8.8-1.4-12.1.8-.3-3.8-2.4-7.4-5.9-9.8-3.1-2.1-7.3-3.1-11.3-2.9-4-.3-8.2.7-11.3,2.9-3.5,2.4-5.6,6-5.9,9.8-3.3-2.2-8.4-2.6-12.1-.8-5.2,2.5-7.6,8.1-6.7,13.1-.5-3.8-6.1-6.3-10.1-4.5-3.3,1.5-4.3,5.5-2.6,8.2h-7c-3.4,2.5-2.7,7.8,1.3,9.6,3.9,1.8,9.6-.7,10.1-4.5-.9,5,1.5,10.6,6.7,13.1,3.7,1.8,8.8,1.4,12.1-.8.3,3.8,2.4,7.4,5.9,9.8,3.1,2.1,7.3,3.1,11.3,2.9,4,.3,8.2-.7,11.3-2.9,3.5-2.4,5.6-6,5.9-9.8,3.3,2.2,8.4,2.6,12.1.8,5.2-2.5,7.6-8.1,6.7-13.1.5,3.8,6.1,6.3,10.1,4.5,3.3-1.5,4.3-5.5,2.6-8.2h7c3.4-2.5,2.7-7.8-1.3-9.6Z"/>
        </g>
        <g class="cls-12">
          <path class="cls-2" d="M929.8,629.1c-3.9-1.8-9.6.7-10.1,4.5.9-5-1.5-10.6-6.7-13.1-3.7-1.8-8.8-1.4-12.1.8-.3-3.8-2.4-7.4-5.9-9.8-3.1-2.1-7.3-3.1-11.3-2.9-4-.3-8.2.7-11.3,2.9-3.5,2.4-5.6,6-5.9,9.8-3.3-2.2-8.4-2.6-12.1-.8-5.2,2.5-7.6,8.1-6.7,13.1-.5-3.8-6.1-6.3-10.1-4.5-3.9,1.8-4.7,7.1-1.3,9.6h19.6c0,.1.1.2.2.3h27.5c0,0,27.5,0,27.5,0,0,0,.1-.1.2-.2h19.6c3.4-2.5,2.7-7.9-1.3-9.7Z"/>
        </g>
        <g class="cls-12">
          <path class="cls-2" d="M690.6,610.9l-.8-.4c7.8-8.4,3.1-23.4-7.4-28.4-10.5-4.9-23.9-1-32,7.1,2.9-6.7-2.8-14.7-10.1-16.5-7.3-1.8-15,1.2-21,5.5,3.6-7.1,2-16.4-3.9-21.9-5.9-5.5-15.5-6.9-22.8-3.3,1.2-12.5-3.9-25.6-14.1-33.4-10.1-7.8-25.2-9.6-36.5-3.5-11.3,6.1-17.5,20.3-13.3,32.1-6.5-4.6-16-1.3-20.6,5.1-1.6.5-3.1,1.5-3.9,3.2-1.2,2.4-.6,5.5.9,7.6,0,.8.1,1.6.3,2.4-4.3.4-8.5,2.7-10.6,6.8-2.7,5.2-.8,13,4.4,15-5.9-1.2-12.3,1.9-15.4,7.4-3.1,5.5-2.6,13.1,1.1,18.2,3.6,4.8,9.9,7,15.4,5.4,0,.1,0,.3,0,.4-3.3,3.1-2.6,10,1.2,12.7,2.8,2,6.5,2,9.6.5,1.4,0,2.8-.3,4.1-1-7.3,6.4-12.7,16-10.6,25.2,2.2,9.3,14.4,15.9,22.5,10.6-4.7,11.7.9,26,12,32.5,11.1,6.5,26.2,5.2,36.6-2.3,10.4-7.5,16-20.4,15.4-32.9,7.1,3.9,16.8,2.8,22.9-2.5,6.1-5.3,8.1-14.5,4.7-21.7,5.8,4.6,13.4,7.8,20.8,6.2,7.4-1.6,13.4-9.4,10.7-16.2,7.8,8.4,21,12.8,31.7,8.2,10.7-4.6,16-19.4,8.6-28.1ZM514.8,583.3v-.3c.2.2.4.4.6.6-.2-.1-.4-.2-.6-.3Z"/>
        </g>
        <path class="cls-2" d="M569.6,570.5h37.8c-.2-1.2-1.7-2.3-3.6-2.6-2.5-.5-5.2,0-7.5.8,0-1.5-1.9-3-4.4-3.3-2.5-.3-5.2.7-6,2.1-.2-1.7-.5-3.6-2.6-4.7-2.1-1.2-5.7-1.1-7.7.1-2,1.3-2,3.5,0,4.7-1.4-.6-3.2-.8-4.8-.4s-2.8,1.4-2.5,2.4c0,.3.6.7,1.2.9Z"/>
        <g class="cls-12">
          <path class="cls-2" d="M634,601.2c-5.9-8-12.6-5.9-18.2,1.5-1.3,1.7-3.5.8-4-1.3-4.8-18.9-21.8-29.7-34.1-13.8-1.2,1.6-3.6.9-4-1.3-2.2-12.2-3.9-27.3-13.7-33.7-4.2-2.7-9.7-4.1-15-3.5-2.3,2.1-4.1,5.2-4.8,8.6-1.9,9.2,1.9,19,7.4,25.6-4.7-3.6-11.3,1.9-11.9,8.7-.6,6.8,3.6,13.2,8.6,16l94,1.5c-1.1-3-2.5-5.8-4.2-8.2Z"/>
        </g>
        <g>
          <g class="cls-12">
            <path class="cls-2" d="M690.6,610.5h-3.6c1.4,8.1-3.6,17.6-11.8,21.1-10.7,4.6-24,.2-31.8-8.2,2.7,6.8-3.4,14.6-10.8,16.2-7.4,1.6-15-1.7-20.8-6.2,3.3,7.2,1.3,16.4-4.8,21.7-6.1,5.3-15.8,6.4-22.9,2.5.7,12.5-5,25.4-15.4,32.9-10.4,7.5-25.6,8.8-36.7,2.3-.7-.4-1.4-.9-2-1.3,2.3,3.4,5.3,6.3,8.8,8.4,11.1,6.5,26.2,5.2,36.7-2.3,10.4-7.5,16.1-20.4,15.4-32.9,7.1,3.9,16.8,2.8,22.9-2.5,6.1-5.3,8.1-14.5,4.8-21.7,5.8,4.6,13.5,7.8,20.8,6.2,7.4-1.6,13.4-9.4,10.8-16.2,7.8,8.4,21,12.8,31.8,8.2,10.7-4.6,16.1-19.4,8.6-28.1Z"/>
          </g>
          <g class="cls-12">
            <path class="cls-2" d="M571.3,526c10.1,7.8,15.2,20.9,14.1,33.4,7.3-3.6,16.9-2.2,22.8,3.3s7.5,14.8,3.9,21.9c6-4.4,13.8-7.3,21.1-5.5,7.3,1.8,13,9.8,10.1,16.5,8.2-8.1,21.5-12,32.1-7.1,8.1,3.8,12.7,13.4,11,21.5h3.6c7.8-8.4,3.1-23.4-7.5-28.3-10.6-4.9-23.9-1-32.1,7.1,2.9-6.7-2.8-14.7-10.1-16.5-7.3-1.8-15,1.2-21.1,5.5,3.6-7.1,2-16.4-3.9-21.9-5.9-5.5-15.5-6.9-22.8-3.3,1.2-12.5-3.9-25.6-14.1-33.4-10.1-7.8-25.2-9.6-36.5-3.5-3.6,2-6.8,4.8-9.2,8.1.7-.4,1.4-.9,2.1-1.3,11.3-6.1,26.4-4.3,36.5,3.5Z"/>
          </g>
        </g>
        <path class="cls-2" d="M511.7,594.8c-1.4-.7-3.1-.1-4.1,1,.4-.9-.4-2.1-1.3-2.3-.9-.3-1.9.2-2.7.8.5-1,.3-2.3-.5-3.1-.8-.8-2-1-2.9-.5.1-1.7-.5-3.6-1.8-4.7-1.1-.9-2.6-1.2-3.9-.8-1.2-.2-2.5.1-3.5.9-1.3,1.1-2,2.9-1.8,4.7-.9-.5-2.2-.3-2.9.5-.8.8-1,2.1-.5,3.1-.8-.6-1.8-1-2.7-.8-.9.3-1.7,1.4-1.3,2.3-1-1.1-2.8-1.7-4.1-1-1.4.7-2,2.8-1,4l21.6-.3,14.5.2c1-1.2.4-3.3-1-4Z"/>
        <path class="cls-2" d="M631.6,536.4c.3-.7-.3-1.5-1.4-1.8-1.4-.4-3.1,0-4.1.6.4-.5-.4-1.2-1.3-1.3-.9-.1-1.9,0-2.7.4.5-.6.3-1.3-.5-1.7-.8-.4-2-.5-2.9-.3.1-1-.5-2-1.8-2.6-1.1-.5-2.6-.7-3.9-.5-1.2-.1-2.5,0-3.5.5-1.3.6-2,1.7-1.8,2.6-.9-.3-2.2-.2-2.9.3-.8.4-1,1.2-.5,1.7-.8-.3-1.8-.6-2.7-.4-.9.1-1.7.8-1.3,1.3-1-.6-2.8-1-4.1-.6-1.2.3-1.8,1.3-1.3,1.9-.3,1.2.3,2.6,1.4,3.2,1.4.7,3.1.1,4.1-1-.4.9.4,2.1,1.3,2.3.9.3,1.9-.2,2.7-.8-.5,1-.3,2.3.5,3.1.8.8,2,1,2.9.5-.1,1.8.5,3.6,1.8,4.7,1,.8,2.3,1.2,3.5.9,1.3.4,2.8,0,3.9-.8,1.3-1.1,2-2.9,1.8-4.7.9.5,2.2.3,2.9-.5.8-.8,1-2.1.5-3.1.8.6,1.8,1,2.7.8s1.7-1.4,1.3-2.3c1.1,1.1,2.8,1.7,4.1,1,1.2-.6,1.8-2.2,1.3-3.4Z"/>
        <g>
          <g class="cls-12">
            <path class="cls-2" d="M496.4,572.6c-2.1-2.2-2.9-5.9-1.3-8.4,1.6-2.6,5.9-2.9,7.3-.2-1.1-3.5,0-7.7,2.8-10.1,2.8-2.3,6.9-2.6,10-.7,3,1.9,4.7,5.9,4.1,9.6,1.1-3.2,5.4-4.5,8.2-2.8,2.9,1.7,4.2,5.5,3.7,8.9.3-2.6,3.4-4.3,5.5-3.1,2.2,1.2,2.6,4.8.7,6.5l-41.1.2Z"/>
          </g>
          <g>
            <path class="cls-2" d="M531.2,570.9c.3-2.6,3.4-4.3,5.5-3.1,1,.5,1.6,1.5,1.8,2.6.4-1.7-.3-3.7-1.8-4.5-2.1-1.1-4.9.3-5.5,2.7,0,.8,0,1.5,0,2.3Z"/>
            <path class="cls-2" d="M519.3,564.7c1.1-3.2,5.4-4.5,8.2-2.8,2.2,1.3,3.5,3.9,3.7,6.5.3-3.3-1-6.8-3.7-8.4-2.8-1.6-6.8-.6-8.1,2.4,0,.7,0,1.5-.1,2.2Z"/>
            <path class="cls-2" d="M505.3,555.8c2.8-2.3,6.9-2.6,10-.7,2.3,1.5,3.9,4.2,4.2,7,.4-3.5-1.3-7.1-4.2-8.9-3-1.9-7.2-1.6-10,.7-2.3,1.9-3.5,5.2-3.2,8.2.2-2.4,1.4-4.8,3.2-6.3Z"/>
          </g>
        </g>
        <g>
          <g class="cls-12">
            <path class="cls-2" d="M670.4,573.9c1.6-1.7,2.2-4.5,1-6.5-1.2-2-4.5-2.2-5.6-.2.9-2.7,0-5.9-2.1-7.7s-5.3-2-7.6-.5c-2.3,1.5-3.6,4.5-3.1,7.3-.9-2.5-4.1-3.4-6.3-2.1s-3.2,4.2-2.8,6.8c-.2-2-2.6-3.3-4.2-2.3-1.7.9-2,3.7-.5,5h31.4Z"/>
          </g>
          <g>
            <path class="cls-2" d="M643.7,572.5c-.2-2-2.6-3.3-4.2-2.3-.7.4-1.2,1.2-1.4,2-.3-1.3.2-2.8,1.4-3.5,1.6-.9,3.8.3,4.2,2.1,0,.6,0,1.2,0,1.7Z"/>
            <path class="cls-2" d="M652.8,567.8c-.9-2.5-4.1-3.4-6.3-2.1-1.7,1-2.7,3-2.8,5-.2-2.5.8-5.2,2.8-6.5,2.1-1.3,5.2-.4,6.2,1.9,0,.6,0,1.1,0,1.7Z"/>
            <path class="cls-2" d="M663.6,561c-2.1-1.8-5.3-2-7.6-.5-1.8,1.1-3,3.2-3.2,5.4-.3-2.7,1-5.5,3.2-6.8,2.3-1.5,5.5-1.2,7.6.5,1.8,1.5,2.7,4,2.4,6.3-.2-1.9-1-3.7-2.4-4.8Z"/>
          </g>
        </g>
        <g class="cls-9">
          <path class="cls-6" d="M562.9,530c9.8-7.1,20.9.6,20.8,12-1.2-2.1-2.3-4.1-3.6-5.9-4-6-10.3-7.3-17.2-6.1h0Z"/>
        </g>
        <g class="cls-9">
          <path class="cls-6" d="M578.1,588.4c9.8-7.1,20.9.6,20.8,12-1.2-2.1-2.3-4.1-3.6-5.9-4-6-10.3-7.3-17.2-6.1h0Z"/>
        </g>
        <path class="cls-2" d="M568,548.6c2.2,0,2.2-3.6,0-3.6s-2.2,3.6,0,3.6h0Z"/>
        <path class="cls-2" d="M586.8,538.8c2.2,0,2.2-3.6,0-3.6s-2.2,3.6,0,3.6h0Z"/>
        <path class="cls-2" d="M672.7,582c2.2,0,2.2-3.6,0-3.6s-2.2,3.6,0,3.6h0Z"/>
        <path class="cls-2" d="M498,549.4c2.2,0,2.2-3.6,0-3.6s-2.2,3.6,0,3.6h0Z"/>
        <path class="cls-2" d="M492.9,547.1c2.2,0,2.2-3.6,0-3.6s-2.2,3.6,0,3.6h0Z"/>
        <g class="cls-12">
          <path class="cls-2" d="M50,622.5c-8.9-9.4-12.5-25.4-5.5-36.5,7-11.1,25.5-12.5,31.8-.9-4.9-15.3.1-33.5,12.1-43.6,12-10.1,30-11.4,43.2-3.1,13.2,8.3,20.5,25.7,17.6,41.5,4.8-14,23.3-19.3,35.7-11.9,12.4,7.4,18,23.9,15.8,38.7,1.2-11.1,14.6-18.4,23.9-13.2,9.4,5.2,11.1,20.9,3,28.2l-177.7.8Z"/>
        </g>
        <g class="cls-11">
          <path class="cls-6" d="M185.1,621.9c-2.3-8.6-6.2-16.2-14.3-21.3-12.5-7.8-32.5-9.6-39.2,6.9-1.2,3-5.2,1.1-5.3-1.5-1.5-24.3-31.6-54-51.7-32.4,0,3.9.7,7.8,1.9,11.5-6.3-11.6-24.8-10.2-31.8.9-7,11.1-3.5,27,5.5,36.5h.2c-1.7,2.7-.8,6.9,2.3,8.4,3.6,1.8,8.7-.7,9.2-4.5-.8,5,1.3,10.6,6.1,13.1,3.4,1.8,8.1,1.4,11.1-.8.3,3.8,2.2,7.4,5.3,9.8,2.9,2.1,6.7,3.1,10.3,2.9,3.7.3,7.5-.7,10.3-2.9,3.2-2.4,5.1-6,5.3-9.8,3,2.2,7.7,2.6,11.1.8,4.8-2.5,6.9-8.1,6.1-13.1.5,3.8,5.6,6.3,9.2,4.5,3.2-1.6,4.1-6.1,2-8.8l46.4-.2Z"/>
        </g>
        <g>
          <path class="cls-2" d="M92.7,621.7l-44.2.2c.3-1.2-.3-2.7-1.6-3.3-1.9-.9-4.7.4-4.9,2.2.4-2.5-.8-5.2-3.3-6.4-1.8-.9-4.3-.6-6,.4-.2-1.8-1.2-3.6-2.9-4.8-1.6-1-3.6-1.5-5.6-1.4-2-.1-4,.4-5.5,1.5-1.7,1.2-2.7,3-2.8,4.8-1.6-1-4.1-1.2-6-.3-2.5,1.2-3.7,4-3.2,6.5-.3-1.8-3-3.1-5-2.2-1.9.9-2.3,3.5-.6,4.7h9.6s0,0,.1,0h5.5c-2.5,3.2-3.2,7.5-.6,10.7,3,3.8,10.8,4.1,13.4.2-2,5.2.2,11.4,5.2,14.8s12.7,3.8,18.2.9c5.5-2.9,8.6-8.8,7.3-14.2,2.1,4.8,9.9,6.5,15.1,3.9,5.2-2.5,7.5-8.2,6.6-13.2.6,3.8,6.2,6.2,10.1,4.4,3.9-1.8,4.6-7.2,1.2-9.6Z"/>
          <path class="cls-2" d="M170.7,600.6c-11.2-7-28.5-9.1-36.7,2.4,9-7,23.3-4.6,33.1,1.4,6.9,4.3,10.7,10.5,13.2,17.5h4.8c-2.3-8.6-6.2-16.3-14.3-21.3Z"/>
          <path class="cls-2" d="M126.2,606c-1.5-24.3-31.6-54-51.7-32.4,0,.2,0,.3,0,.5,19.9-14.8,46.7,12.8,48.1,35.7.2,2.6,4.1,4.5,5.3,1.5.3-.8.7-1.6,1.1-2.3-1.4-.2-2.7-1.5-2.8-3Z"/>
          <path class="cls-2" d="M72.7,588.9c-1-3.1-1.5-6.2-1.8-9.4-8-4.8-20.1-2.4-25.9,5.8,8.5-6.7,22.4-6.1,27.7,3.7Z"/>
        </g>
        <path class="cls-6" d="M203.3,607.6c7.5-7.9,18-12.2,26.7-2.8,1,1.1,2,2.4,2.8,3.6-.2-6.1-3-12.1-8.1-15-8.8-4.9-21,1.2-23.5,11.1.8,1,1.5,2,2.2,3Z"/>
        <g>
          <path class="cls-2" d="M200.7,614.9c1.2-11.1,14.6-18.4,23.9-13.2,4.1,2.3,6.8,6.7,7.7,11.4,1.5-7.4-1.3-16-7.7-19.6-8.9-5-21.4,1.5-23.7,11.6.3,3.3.2,6.6-.3,9.8Z"/>
          <path class="cls-2" d="M149.2,588.2c4.8-14,23.3-19.3,35.7-11.9,9.5,5.7,15,16.8,16.1,28.3,1.3-14.2-4.3-29.5-16.1-36.5-11.9-7.1-29.6-2.5-35.1,10.5.2,3.2,0,6.4-.5,9.6Z"/>
          <path class="cls-2" d="M88.4,549.7c12-10.1,30-11.4,43.2-3.1,10.1,6.4,16.8,18.1,18,30.4,1.6-15-5.6-30.8-18-38.6-13.2-8.3-31.2-7.1-43.2,3.1-9.9,8.4-15.1,22.3-13.8,35.6,1-10.5,5.9-20.7,13.8-27.4Z"/>
        </g>
        <g class="cls-12">
          <path class="cls-2" d="M153.4,557.8c-2.6-2.7-3.6-7.3-1.6-10.5,2-3.2,7.3-3.6,9.1-.3-1.4-4.4,0-9.6,3.5-12.5,3.4-2.9,8.6-3.3,12.4-.9,3.8,2.4,5.9,7.4,5,11.9,1.4-4,6.7-5.5,10.2-3.4,3.6,2.1,5.2,6.9,4.6,11.1.4-3.2,4.2-5.3,6.9-3.8,2.7,1.5,3.2,6,.9,8.1l-51,.2Z"/>
        </g>
        <g>
          <path class="cls-2" d="M196.7,555.7c.4-3.2,4.2-5.3,6.9-3.8,1.2.7,1.9,1.9,2.2,3.3.4-2.1-.4-4.6-2.2-5.6-2.6-1.4-6.2.4-6.8,3.3,0,.9,0,1.9,0,2.8Z"/>
          <path class="cls-2" d="M181.9,548c1.4-4,6.7-5.5,10.2-3.4,2.7,1.6,4.3,4.8,4.6,8.1.4-4.1-1.2-8.5-4.6-10.5-3.4-2-8.5-.7-10.1,3,0,.9,0,1.9-.2,2.8Z"/>
          <path class="cls-2" d="M164.5,536.9c3.4-2.9,8.6-3.3,12.4-.9,2.9,1.8,4.8,5.2,5.2,8.7.5-4.3-1.6-8.8-5.2-11.1-3.8-2.4-9-2-12.4.9-2.8,2.4-4.3,6.4-4,10.2.3-3,1.7-5.9,4-7.9Z"/>
        </g>
        <path class="cls-2" d="M61.1,593.1c9.2.6,16.1,7.8,16.3,17,0,0-1.7-.7-1.7-.7,6.1-5.8,16.7-9.7,22.1-.8-6.8-7.7-16.3-2.3-22.1,3.7-.4-2.6-.3-5.4-1.3-7.9-1.9-5.8-7.5-9.7-13.2-11.3h0Z"/>
        <g class="cls-9">
          <path class="cls-6" d="M113.5,553.7c9.8-7.1,20.9.6,20.8,12-1.2-2.1-2.3-4.1-3.6-5.9-4-6-10.3-7.3-17.2-6.1h0Z"/>
        </g>
        <path class="cls-2" d="M204.9,580.6c2.2,0,2.2-3.6,0-3.6s-2.2,3.6,0,3.6h0Z"/>
        <path class="cls-2" d="M144.6,536.9c2.2,0,2.2-3.6,0-3.6s-2.2,3.6,0,3.6h0Z"/>
        <path class="cls-2" d="M154,541.3c2.2,0,2.2-3.6,0-3.6s-2.2,3.6,0,3.6h0Z"/>
        <path class="cls-2" d="M64.6,570.7c2.2,0,2.2-3.6,0-3.6s-2.2,3.6,0,3.6h0Z"/>
        <path class="cls-2" d="M220.5,612.2c2.2,0,2.2-3.6,0-3.6s-2.2,3.6,0,3.6h0Z"/>
        <path class="cls-2" d="M192.4,594.7c2.2,0,2.2-3.6,0-3.6s-2.2,3.6,0,3.6h0Z"/>
        <path class="cls-2" d="M287.8,581.6h37.8c-.2-1.2-1.7-2.3-3.6-2.6-2.5-.5-5.2,0-7.5.8,0-1.5-1.9-3-4.4-3.3-2.5-.3-5.2.7-6,2.1-.2-1.7-.5-3.6-2.6-4.7-2.1-1.2-5.7-1.1-7.7.1-2,1.3-2,3.5,0,4.7-1.4-.6-3.2-.8-4.8-.4-1.6.4-2.8,1.4-2.5,2.4,0,.3.6.7,1.2.9Z"/>
        <path class="cls-2" d="M455.1,610h37.8c-.2-1.2-1.7-2.3-3.6-2.6-2.5-.5-5.2,0-7.5.8,0-1.5-1.9-3-4.4-3.3-2.5-.3-5.2.7-6,2.1-.2-1.7-.5-3.6-2.6-4.7-2.1-1.2-5.7-1.1-7.7.1-2,1.3-2,3.5,0,4.7-1.4-.6-3.2-.8-4.8-.4-1.6.4-2.8,1.4-2.5,2.4,0,.3.6.7,1.2.9Z"/>
        <path class="cls-2" d="M455.7,581.2h-19.3c0-1.2.9-2.3,1.8-2.6,1.3-.5,2.7,0,3.8.8,0-1.5,1-3,2.2-3.3,1.3-.3,2.6.7,3.1,2.1.1-1.7.3-3.6,1.3-4.7,1.1-1.2,2.9-1.1,3.9.1,1,1.3,1,3.5,0,4.7.7-.6,1.6-.8,2.4-.4.8.4,1.4,1.4,1.3,2.4,0,.3-.3.7-.6.9Z"/>
        <path class="cls-2" d="M241,613.5h-19.3c0-1.2.9-2.3,1.8-2.6,1.3-.5,2.7,0,3.8.8,0-1.5,1-3,2.2-3.3,1.3-.3,2.6.7,3.1,2.1.1-1.7.3-3.6,1.3-4.7,1.1-1.2,2.9-1.1,3.9.1s1,3.5,0,4.7c.7-.6,1.6-.8,2.4-.4.8.4,1.4,1.4,1.3,2.4,0,.3-.3.7-.6.9Z"/>
        <path class="cls-2" d="M218.4,632h37.8c-.2-1.2-1.7-2.3-3.6-2.6-2.5-.5-5.2,0-7.5.8,0-1.5-1.9-3-4.4-3.3-2.5-.3-5.2.7-6,2.1-.2-1.7-.5-3.6-2.6-4.7-2.1-1.2-5.7-1.1-7.7.1-2,1.3-2,3.5,0,4.7-1.4-.6-3.2-.8-4.8-.4s-2.8,1.4-2.5,2.4c0,.3.6.7,1.2.9Z"/>
        <g class="cls-12">
          <path class="cls-2" d="M236.1,632.5c-2.6-1.3-3.8-4.9-2.5-7.6,1.3-2.7,4.7-3.9,7.3-2.6-3.2-9.6-2.3-20.9,3.3-29.3,5.6-8.4,15.9-13.3,25.4-11.1,12.4,2.8,20.3,15.8,24,28.5,1.3-6.5,11.4-8.3,14.6-2.6.6-5.6,6.2-10,11.5-8.9-5.4-17.9,8.2-39.2,26-40.8,17.8-1.5,34.6,17.2,32,35.8,3.4-4.5,11.7-2.6,13,3,4.9-3.6,12.9,1.2,12.4,7.4,3.8-10,8.5-21,17.9-25.3,8.3-3.8,18.6-.9,24.7,6.1,6.1,7,8.2,17.3,6.3,26.5,5.4-5.8,15-6.4,21-1.3,6,5.1,7.4,15.1,3.1,21.8l-239.9.3Z"/>
        </g>
        <g class="cls-13">
          <path class="cls-6" d="M389,617.5c-1.3.6-3.2.5-3.9-1.1-4.3-9.9-8.9-23.1-20-26.3-12.9-3.7-24.1,8.6-24.5,21.5,0,2.4-2.4,3.6-4.3,2.6-9.8-5.2-18.7-1.4-20.7,10.2-.4,2.4-3.3,2.6-4.8,1.3-6.7-5.7-15-1.7-14.3,6.6l116.9-.2c-4.5-11.3-10.8-21.4-24.3-14.7Z"/>
        </g>
        <path class="cls-2" d="M298.2,632.4c2.7-3.3,7.9-3.9,12.5,0,0,0,0,0,0,0h4.1c.3-.3.6-.8.7-1.4,2.1-11.6,10.9-15.4,20.7-10.2,2,1,4.2-.2,4.3-2.6.4-12.9,11.6-25.2,24.5-21.5,11.2,3.2,15.7,16.3,20,26.3.7,1.6,2.6,1.7,3.9,1.1,10.8-5.4,17,0,21.4,8.2h3c-4.5-11.3-10.8-21.4-24.3-14.7-1.3.6-3.2.5-3.9-1.1-4.3-9.9-8.9-23.1-20-26.3-12.9-3.7-24.1,8.6-24.5,21.5,0,2.4-2.4,3.6-4.3,2.6-9.8-5.2-18.7-1.4-20.7,10.2-.4,2.4-3.3,2.6-4.8,1.3-6.7-5.7-15-1.7-14.3,6.6h1.9Z"/>
        <g class="cls-1">
          <path class="cls-6" d="M373,624.8c-.7.3-1.7.3-2.1-.6-2.3-5.2-4.7-12.2-10.5-13.8-6.8-1.9-12.7,4.5-12.9,11.3,0,1.2-1.2,1.9-2.3,1.4-5.2-2.7-9.8-.7-10.9,5.4-.2,1.3-1.7,1.4-2.5.7-3.6-3-7.9-.9-7.6,3.5h61.6c-2.3-6-5.7-11.4-12.8-7.8Z"/>
        </g>
        <g class="cls-11">
          <path class="cls-6" d="M472.9,610.4c-6-5.1-15.6-4.5-21,1.3.1-.7.2-1.3.3-2-3.5,4.1-6.3,9.4-8,14.8-.6,1.8-2.5,2.8-4.2,1.8-6.9-4.2-15.8-3.6-15.5,6h51.4c4.3-6.8,2.8-16.8-3.1-21.9Z"/>
        </g>
        <g>
          <g class="cls-12">
            <path class="cls-2" d="M344.6,563.5c17.8-1.5,34.6,17.2,32,35.8,3.4-4.5,11.7-2.6,13,3,4.9-3.6,12.9,1.2,12.4,7.4,3.8-10,8.5-21,17.9-25.3,8.3-3.8,18.6-.9,24.7,6.1,6.1,7,8.2,17.3,6.3,26.5,5.4-5.8,15-6.4,21-1.3,3.8,3.2,5.7,8.4,5.6,13.5,2.4-6.4.6-14.5-4.5-18.9-6-5.1-15.6-4.5-21,1.3,1.9-9.3-.2-19.6-6.3-26.5-6.1-7-16.4-9.9-24.7-6.1-9.4,4.3-14.1,15.3-17.9,25.3.5-6.2-7.5-11-12.4-7.4-1.3-5.6-9.6-7.6-13-3,2.6-18.6-14.1-37.3-32-35.8-14.1,1.2-25.6,14.8-27.1,29.3,3.4-12.3,13.7-22.7,26-23.8Z"/>
          </g>
          <g class="cls-12">
            <path class="cls-2" d="M239.9,627.7c-.6-1.9-1.1-3.9-1.4-6-2,0-4,1.2-4.8,3.1-.6,1.3-.6,2.8-.2,4.2,1.6-1.8,4.3-2.5,6.5-1.4Z"/>
          </g>
          <g class="cls-12">
            <path class="cls-2" d="M243.1,598.4c5.6-8.4,15.9-13.3,25.4-11.1,12.4,2.8,20.3,15.8,24,28.5,1.3-6.5,11.4-8.3,14.6-2.6.6-5.6,6.2-10,11.5-8.9-.6-1.8-.9-3.7-1.1-5.6-4.6.3-8.9,4.2-9.4,9-3.2-5.8-13.3-4-14.6,2.6-3.7-12.7-11.6-25.7-24-28.5-9.5-2.1-19.9,2.7-25.4,11.1-2.7,4.1-4.4,9-4.9,14,.8-3,2.1-5.9,3.9-8.5Z"/>
          </g>
        </g>
        <path class="cls-4" d="M423.9,587.4s7.5.9,7.8,8.7c0,0,6.6-6.5,10.9-.8"/>
        <path class="cls-5" d="M460.7,621.4s3.9,1.5,3.2,5.7c0,0,4.3-2.6,5.9,1"/>
        <g class="cls-9">
          <path class="cls-6" d="M261.8,594.2c9.8-7.1,20.9.6,20.8,12-1.2-2.1-2.3-4.1-3.6-5.9-4-6-10.3-7.3-17.2-6.1h0Z"/>
        </g>
        <g class="cls-9">
          <path class="cls-6" d="M344.9,568c9.8-7.1,20.9.6,20.8,12-1.2-2.1-2.3-4.1-3.6-5.9-4-6-10.3-7.3-17.2-6.1h0Z"/>
        </g>
        <path class="cls-2" d="M311.7,589.5c2.2,0,2.2-3.6,0-3.6s-2.2,3.6,0,3.6h0Z"/>
        <path class="cls-2" d="M325.2,596c2.2,0,2.2-3.6,0-3.6s-2.2,3.6,0,3.6h0Z"/>
        <path class="cls-2" d="M402.1,591.7c2.2,0,2.2-3.6,0-3.6s-2.2,3.6,0,3.6h0Z"/>
        <path class="cls-2" d="M459.2,599.3c2.2,0,2.2-3.6,0-3.6s-2.2,3.6,0,3.6h0Z"/>
        <path class="cls-2" d="M329.4,640.7c2.2,0,2.2-3.6,0-3.6s-2.2,3.6,0,3.6h0Z"/>
        <path class="cls-2" d="M316.9,642.9c2.2,0,2.2-3.6,0-3.6s-2.2,3.6,0,3.6h0Z"/>
        <g>
          <g class="cls-12">
            <path class="cls-2" d="M1008.8,597.7c6-2.8,10.9-9.1,10.2-16-.7-6.8-8.6-12.3-14.2-8.7,6.5-6.6,11.1-16.4,8.8-25.6-2.3-9.2-13.8-15.5-21.1-9.8,3.9-11.8-1.8-26-12.2-32.1-10.4-6.1-24.2-4.3-33.5,3.5-9.3,7.8-14,20.9-12.9,33.4-6.7-3.6-15.5-2.2-20.9,3.3-5.4,5.5-6.9,14.8-3.6,21.9-5.5-4.4-12.6-7.3-19.3-5.5-6.7,1.8-12,9.8-9.3,16.5-7.5-8.1-19.8-12-29.4-7.1s-14,19.9-6.8,28.4l164.2-2.2Z"/>
          </g>
          <path class="cls-2" d="M965.1,560.4h-37.8c.2-1.2,1.7-2.3,3.6-2.6,2.5-.5,5.2,0,7.5.8,0-1.5,1.9-3,4.4-3.3,2.5-.3,5.2.7,6,2.1.2-1.7.5-3.6,2.6-4.7,2.1-1.2,5.7-1.1,7.7.1,2,1.3,2,3.5,0,4.7,1.4-.6,3.2-.8,4.8-.4s2.8,1.4,2.5,2.4c0,.3-.6.7-1.2.9Z"/>
          <g class="cls-12">
            <path class="cls-2" d="M901.5,591.1c7-8,15.1-5.9,21.7,1.5,1.5,1.7,4.2.8,4.8-1.3,5.8-18.9,26-29.7,40.7-13.8,1.5,1.6,4.3.9,4.8-1.3,2.7-12.2,4.6-27.3,16.4-33.7,5-2.7,11.6-4.1,17.9-3.5,2.7,2.1,4.9,5.2,5.8,8.6,2.3,9.2-2.3,19-8.8,25.6,5.6-3.6,13.5,1.9,14.2,8.7.7,6.8-4.2,13.2-10.2,16l-112.3,1.5c1.3-3,3-5.8,5.1-8.2Z"/>
          </g>
          <g class="cls-12">
            <path class="cls-2" d="M851.4,571.6c9.7-4.9,22-1,29.4,7.1-2.7-6.7,2.6-14.7,9.3-16.5,6.7-1.8,13.8,1.2,19.3,5.5-3.3-7.1-1.8-16.4,3.6-21.9,5.4-5.5,14.2-6.9,20.9-3.3-1.1-12.5,3.6-25.6,12.9-33.4,9.3-7.8,23.1-9.6,33.5-3.5,3.3,2,6.2,4.8,8.4,8.1-.6-.4-1.3-.9-1.9-1.3-10.4-6.1-24.2-4.3-33.5,3.5-9.3,7.8-14,20.9-12.9,33.4-6.7-3.6-15.5-2.2-20.9,3.3-5.4,5.5-6.9,14.8-3.6,21.9-5.5-4.4-12.6-7.3-19.3-5.5-6.7,1.8-12,9.8-9.3,16.5-7.5-8.1-19.8-12-29.4-7.1-7.4,3.8-11.7,13.4-10.1,21.5h-3.3c-7.2-8.4-2.8-23.4,6.8-28.3Z"/>
          </g>
          <path class="cls-2" d="M1003.3,587.3c1.4-.7,3.1-.1,4.1,1-.4-.9.4-2.1,1.3-2.3.9-.3,1.9.2,2.7.8-.5-1-.3-2.3.5-3.1.8-.8,2-1,2.9-.5-.1-1.7.5-3.6,1.8-4.7,1.1-.9,2.6-1.2,3.9-.8,1.2-.2,2.5.1,3.5.9,1.3,1.1,2,2.9,1.8,4.7.9-.5,2.2-.3,2.9.5.8.8,1,2.1.5,3.1.8-.6,1.8-1,2.7-.8.9.3,1.7,1.4,1.3,2.3,1-1.1,2.8-1.7,4.1-1,1.4.7,2,2.8,1,4l-21.6-.3-14.5.2c-1-1.2-.4-3.3,1-4Z"/>
          <path class="cls-2" d="M900.8,540.6c1.4-.4,3.1,0,4.1.6-.4-.5.4-1.2,1.3-1.3.9-.1,1.9,0,2.7.4-.5-.6-.3-1.3.5-1.7s2-.5,2.9-.3c-.1-1,.5-2,1.8-2.6,1.1-.5,2.6-.7,3.9-.5,1.2-.1,2.5,0,3.5.5,1.3.6,2,1.7,1.8,2.6.9-.3,2.2-.2,2.9.3.8.4,1,1.2.5,1.7.8-.3,1.8-.6,2.7-.4.9.1,1.7.8,1.3,1.3,1-.6,2.8-1,4.1-.6s2,1.6,1,2.2l-21.6-.2h-14.5c-1-.6-.4-1.7,1-2.1Z"/>
          <g>
            <g class="cls-12">
              <path class="cls-2" d="M1039.7,533.5c2.1-2.2,2.9-5.9,1.3-8.4-1.6-2.6-5.9-2.9-7.3-.2,1.1-3.5,0-7.7-2.8-10.1-2.8-2.3-6.9-2.6-10-.7-3,1.9-4.7,5.9-4.1,9.6-1.1-3.2-5.4-4.5-8.2-2.8-2.9,1.7-4.2,5.5-3.7,8.9-.3-2.6-3.4-4.3-5.5-3.1-2.2,1.2-2.6,4.8-.7,6.5l41.1.2Z"/>
            </g>
            <g>
              <path class="cls-2" d="M1004.9,531.7c-.3-2.6-3.4-4.3-5.5-3.1-1,.5-1.6,1.5-1.8,2.6-.4-1.7.3-3.7,1.8-4.5,2.1-1.1,4.9.3,5.5,2.7,0,.8,0,1.5,0,2.3Z"/>
              <path class="cls-2" d="M1016.8,525.6c-1.1-3.2-5.4-4.5-8.2-2.8-2.2,1.3-3.5,3.9-3.7,6.5-.3-3.3,1-6.8,3.7-8.4,2.8-1.6,6.8-.6,8.1,2.4,0,.7,0,1.5.1,2.2Z"/>
              <path class="cls-2" d="M1030.9,516.7c-2.8-2.3-6.9-2.6-10-.7-2.3,1.5-3.9,4.2-4.2,7-.4-3.5,1.3-7.1,4.2-8.9,3-1.9,7.2-1.6,10,.7,2.3,1.9,3.5,5.2,3.2,8.2-.2-2.4-1.4-4.8-3.2-6.3Z"/>
            </g>
          </g>
          <g>
            <g class="cls-12">
              <path class="cls-2" d="M844.6,566.4c-1.6-1.7-2.2-4.5-1-6.5,1.2-2,4.5-2.2,5.6-.2-.9-2.7,0-5.9,2.1-7.7s5.3-2,7.6-.5c2.3,1.5,3.6,4.5,3.1,7.3.9-2.5,4.1-3.4,6.3-2.1s3.2,4.2,2.8,6.8c.2-2,2.6-3.3,4.2-2.3,1.7.9,2,3.7.5,5h-31.4Z"/>
            </g>
            <g>
              <path class="cls-2" d="M871.2,565c.2-2,2.6-3.3,4.2-2.3.7.4,1.2,1.2,1.4,2,.3-1.3-.2-2.8-1.4-3.5-1.6-.9-3.8.3-4.2,2.1,0,.6,0,1.2,0,1.7Z"/>
              <path class="cls-2" d="M862.1,560.3c.9-2.5,4.1-3.4,6.3-2.1,1.7,1,2.7,3,2.8,5,.2-2.5-.8-5.2-2.8-6.5-2.1-1.3-5.2-.4-6.2,1.9,0,.6,0,1.1,0,1.7Z"/>
              <path class="cls-2" d="M851.4,553.5c2.1-1.8,5.3-2,7.6-.5,1.8,1.1,3,3.2,3.2,5.4.3-2.7-1-5.5-3.2-6.8-2.3-1.5-5.5-1.2-7.6.5-1.8,1.5-2.7,4-2.4,6.3.2-1.9,1-3.7,2.4-4.8Z"/>
            </g>
          </g>
          <g class="cls-9">
            <path class="cls-6" d="M971.8,519.9c-6.8-1.2-13.2.1-17.2,6.1-1.3,1.8-2.4,3.8-3.6,5.9,0-11.4,11-19.1,20.8-12h0Z"/>
          </g>
          <g class="cls-9">
            <path class="cls-6" d="M956.6,578.3c-6.8-1.2-13.2.1-17.2,6.1-1.3,1.8-2.4,3.8-3.6,5.9,0-11.4,11-19.1,20.8-12h0Z"/>
          </g>
          <path class="cls-2" d="M946.9,541.2c-2.2,0-2.2-3.6,0-3.6s2.2,3.6,0,3.6h0Z"/>
          <path class="cls-2" d="M928.2,531.3c-2.2,0-2.2-3.6,0-3.6s2.2,3.6,0,3.6h0Z"/>
          <path class="cls-2" d="M842.2,574.5c-2.2,0-2.2-3.6,0-3.6s2.2,3.6,0,3.6h0Z"/>
          <path class="cls-2" d="M1017,541.9c-2.2,0-2.2-3.6,0-3.6s2.2,3.6,0,3.6h0Z"/>
          <path class="cls-2" d="M1022,539.6c-2.2,0-2.2-3.6,0-3.6s2.2,3.6,0,3.6h0Z"/>
        </g>
        <g class="cls-12">
          <path class="cls-2" d="M864.2,642c8.9-9.4,12.5-25.4,5.5-36.5-7-11.1-25.5-12.5-31.8-.9,4.9-15.3-.1-33.5-12.1-43.6-12-10.1-30-11.4-43.2-3.1-13.2,8.3-20.5,25.7-17.6,41.5-4.8-14-23.3-19.3-35.7-11.9-12.4,7.4-18,23.9-15.8,38.7-1.2-11.1-14.6-18.4-23.9-13.2-9.4,5.2-11.1,20.9-3,28.2l177.7.8Z"/>
        </g>
        <g class="cls-12">
          <path class="cls-2" d="M870.1,605.5c-6.3-11.1-23-12.5-28.6-.9,1.1-3.7,1.6-7.6,1.7-11.5-18.1-21.6-45.3,8.1-46.6,32.4-.1,2.6-3.7,4.5-4.8,1.5-6-16.5-24.1-14.7-35.3-6.9-7.3,5-10.8,12.7-12.9,21.3l-62.8-.3c-8.1,9.4-11.2,25.4-4.9,36.5,6.3,11.1,23,12.5,28.6.9-1.1,3.7-1.6,7.6-1.7,11.5,18.1,21.6,45.3-8.1,46.6-32.4.1-2.6,3.7-4.5,4.8-1.5,6,16.5,24.1,14.7,35.3,6.9,7.3-5,10.8-12.7,12.9-21.3l62.8.3c8.1-9.4,11.2-25.4,4.9-36.5Z"/>
        </g>
        <g>
          <path class="cls-2" d="M747.1,623.9c-6.9,4.3-10.7,10.5-13.2,17.5h-4.8c2.3-8.6,6.2-16.3,14.3-21.3,11.2-7,28.5-9.1,36.7,2.4-9-7-23.3-4.6-33.1,1.4Z"/>
          <path class="cls-2" d="M791.7,629.3c-.2,2.6-4.1,4.5-5.3,1.5-.3-.8-.7-1.6-1.1-2.3,1.4-.2,2.7-1.5,2.8-3,1.5-24.3,31.6-54,51.7-32.4,0,.2,0,.3,0,.5-19.9-14.8-46.7,12.8-48.1,35.7Z"/>
          <path class="cls-2" d="M841.6,608.4c1-3.1,1.5-6.2,1.8-9.4,8-4.8,20.1-2.4,25.9,5.8-8.5-6.7-22.4-6.1-27.7,3.7Z"/>
        </g>
        <path class="cls-6" d="M710.9,627.1c-7.5-7.9-18-12.2-26.7-2.8-1,1.1-2,2.4-2.8,3.6.2-6.1,3-12.1,8.1-15,8.8-4.9,21,1.2,23.5,11.1-.8,1-1.5,2-2.2,3Z"/>
        <g>
          <path class="cls-2" d="M713.5,634.4c-1.2-11.1-14.6-18.4-23.9-13.2-4.1,2.3-6.8,6.7-7.7,11.4-1.5-7.4,1.3-16,7.7-19.6,8.9-5,21.4,1.5,23.7,11.6-.3,3.3-.2,6.6.3,9.8Z"/>
          <path class="cls-2" d="M765.1,607.7c-4.8-14-23.3-19.3-35.7-11.9-9.5,5.7-15,16.8-16.1,28.3-1.3-14.2,4.3-29.5,16.1-36.5,11.9-7.1,29.6-2.5,35.1,10.5-.2,3.2,0,6.4.5,9.6Z"/>
          <path class="cls-2" d="M825.8,569.2c-12-10.1-30-11.4-43.2-3.1-10.1,6.4-16.8,18.1-18,30.4-1.6-15,5.6-30.8,18-38.6,13.2-8.3,31.2-7.1,43.2,3.1,9.9,8.4,15.1,22.3,13.8,35.6-1-10.5-5.9-20.7-13.8-27.4Z"/>
        </g>
        <g class="cls-12">
          <path class="cls-2" d="M760.8,577.3c2.6-2.7,3.6-7.3,1.6-10.5-2-3.2-7.3-3.6-9.1-.3,1.4-4.4,0-9.6-3.5-12.5-3.4-2.9-8.6-3.3-12.4-.9-3.8,2.4-5.9,7.4-5,11.9-1.4-4-6.7-5.5-10.2-3.4-3.6,2.1-5.2,6.9-4.6,11.1-.4-3.2-4.2-5.3-6.9-3.8-2.7,1.5-3.2,6-.9,8.1l51,.2Z"/>
        </g>
        <g>
          <path class="cls-2" d="M717.5,575.2c-.4-3.2-4.2-5.3-6.9-3.8-1.2.7-1.9,1.9-2.2,3.3-.4-2.1.4-4.6,2.2-5.6,2.6-1.4,6.2.4,6.8,3.3,0,.9,0,1.9,0,2.8Z"/>
          <path class="cls-2" d="M732.3,567.5c-1.4-4-6.7-5.5-10.2-3.4-2.7,1.6-4.3,4.8-4.6,8.1-.4-4.1,1.2-8.5,4.6-10.5,3.4-2,8.5-.7,10.1,3,0,.9,0,1.9.2,2.8Z"/>
          <path class="cls-2" d="M749.8,556.4c-3.4-2.9-8.6-3.3-12.4-.9-2.9,1.8-4.8,5.2-5.2,8.7-.5-4.3,1.6-8.8,5.2-11.1,3.8-2.4,9-2,12.4.9,2.8,2.4,4.3,6.4,4,10.2-.3-3-1.7-5.9-4-7.9Z"/>
        </g>
        <path class="cls-2" d="M853.1,612.6c-5.8,1.6-11.3,5.4-13.2,11.3-1,2.5-1,5.3-1.3,7.9-5.8-6-15.3-11.4-22.1-3.7,5.3-8.8,16-5,22.1.8,0,0-1.7.7-1.7.7.2-9.2,7.1-16.4,16.3-17h0Z"/>
        <g class="cls-9">
          <path class="cls-6" d="M800.8,573.2c-6.8-1.2-13.2.1-17.2,6.1-1.3,1.8-2.4,3.8-3.6,5.9,0-11.4,11-19.1,20.8-12h0Z"/>
        </g>
        <path class="cls-2" d="M709.3,600.1c-2.2,0-2.2-3.6,0-3.6s2.2,3.6,0,3.6h0Z"/>
        <path class="cls-2" d="M769.6,556.4c-2.2,0-2.2-3.6,0-3.6s2.2,3.6,0,3.6h0Z"/>
        <path class="cls-2" d="M760.2,560.8c-2.2,0-2.2-3.6,0-3.6s2.2,3.6,0,3.6h0Z"/>
        <path class="cls-2" d="M849.6,590.2c-2.2,0-2.2-3.6,0-3.6s2.2,3.6,0,3.6h0Z"/>
        <path class="cls-2" d="M693.7,631.7c-2.2,0-2.2-3.6,0-3.6s2.2,3.6,0,3.6h0Z"/>
        <path class="cls-2" d="M721.8,614.2c-2.2,0-2.2-3.6,0-3.6s2.2,3.6,0,3.6h0Z"/>
        <g>
          <path class="cls-2" d="M1129.4,589.6h-37.8c.2-1.2,1.7-2.3,3.6-2.6,2.5-.5,5.2,0,7.5.8,0-1.5,1.9-3,4.4-3.3,2.5-.3,5.2.7,6,2.1.2-1.7.5-3.6,2.6-4.7,2.1-1.2,5.7-1.1,7.7.1,2,1.3,2,3.5,0,4.7,1.4-.6,3.2-.8,4.8-.4,1.6.4,2.8,1.4,2.5,2.4,0,.3-.6.7-1.2.9Z"/>
          <path class="cls-2" d="M962.1,617.9h-37.8c.2-1.2,1.7-2.3,3.6-2.6,2.5-.5,5.2,0,7.5.8,0-1.5,1.9-3,4.4-3.3,2.5-.3,5.2.7,6,2.1.2-1.7.5-3.6,2.6-4.7,2.1-1.2,5.7-1.1,7.7.1,2,1.3,2,3.5,0,4.7,1.4-.6,3.2-.8,4.8-.4,1.6.4,2.8,1.4,2.5,2.4,0,.3-.6.7-1.2.9Z"/>
          <path class="cls-2" d="M961.4,589.2h19.3c0-1.2-.9-2.3-1.8-2.6-1.3-.5-2.7,0-3.8.8,0-1.5-1-3-2.2-3.3-1.3-.3-2.6.7-3.1,2.1-.1-1.7-.3-3.6-1.3-4.7-1.1-1.2-2.9-1.1-3.9.1-1,1.3-1,3.5,0,4.7-.7-.6-1.6-.8-2.4-.4-.8.4-1.4,1.4-1.3,2.4,0,.3.3.7.6.9Z"/>
          <path class="cls-2" d="M1176.2,621.4h19.3c0-1.2-.9-2.3-1.8-2.6-1.3-.5-2.7,0-3.8.8,0-1.5-1-3-2.2-3.3-1.3-.3-2.6.7-3.1,2.1-.1-1.7-.3-3.6-1.3-4.7-1.1-1.2-2.9-1.1-3.9.1-1,1.3-1,3.5,0,4.7-.7-.6-1.6-.8-2.4-.4-.8.4-1.4,1.4-1.3,2.4,0,.3.3.7.6.9Z"/>
          <path class="cls-2" d="M1198.8,640h-37.8c.2-1.2,1.7-2.3,3.6-2.6,2.5-.5,5.2,0,7.5.8,0-1.5,1.9-3,4.4-3.3,2.5-.3,5.2.7,6,2.1.2-1.7.5-3.6,2.6-4.7,2.1-1.2,5.7-1.1,7.7.1,2,1.3,2,3.5,0,4.7,1.4-.6,3.2-.8,4.8-.4s2.8,1.4,2.5,2.4c0,.3-.6.7-1.2.9Z"/>
          <g class="cls-12">
            <path class="cls-2" d="M1181,640.5c2.6-1.3,3.8-4.9,2.5-7.6-1.3-2.7-4.7-3.9-7.3-2.6,3.2-9.6,2.3-20.9-3.3-29.3-5.6-8.4-15.9-13.3-25.4-11.1-12.4,2.8-20.3,15.8-24,28.5-1.3-6.5-11.4-8.3-14.6-2.6-.6-5.6-6.2-10-11.5-8.9,5.4-17.9-8.2-39.2-26-40.8-17.8-1.5-34.6,17.2-32,35.8-3.4-4.5-11.7-2.6-13,3-4.9-3.6-12.9,1.2-12.4,7.4-3.8-10-8.5-21-17.9-25.3-8.3-3.8-18.6-.9-24.7,6.1-6.1,7-8.2,17.3-6.3,26.5-5.4-5.8-15-6.4-21-1.3-6,5.1-7.4,15.1-3.1,21.8l239.9.3Z"/>
          </g>
          <g class="cls-13">
            <path class="cls-6" d="M1028.2,625.5c1.3.6,3.2.5,3.9-1.1,4.3-9.9,8.9-23.1,20-26.3,12.9-3.7,24.1,8.6,24.5,21.5,0,2.4,2.4,3.6,4.3,2.6,9.8-5.2,18.7-1.4,20.7,10.2.4,2.4,3.3,2.6,4.8,1.3,6.7-5.7,15-1.7,14.3,6.6l-116.9-.2c4.5-11.3,10.8-21.4,24.3-14.7Z"/>
          </g>
          <path class="cls-2" d="M1119,640.4c-2.7-3.3-7.9-3.9-12.5,0,0,0,0,0,0,0h-4.1c-.3-.3-.6-.8-.7-1.4-2.1-11.6-10.9-15.4-20.7-10.2-2,1-4.2-.2-4.3-2.6-.4-12.9-11.6-25.2-24.5-21.5-11.2,3.2-15.7,16.3-20,26.3-.7,1.6-2.6,1.7-3.9,1.1-10.8-5.4-17,0-21.4,8.2h-3c4.5-11.3,10.8-21.4,24.3-14.7,1.3.6,3.2.5,3.9-1.1,4.3-9.9,8.9-23.1,20-26.3,12.9-3.7,24.1,8.6,24.5,21.5,0,2.4,2.4,3.6,4.3,2.6,9.8-5.2,18.7-1.4,20.7,10.2.4,2.4,3.3,2.6,4.8,1.3,6.7-5.7,15-1.7,14.3,6.6h-1.9Z"/>
          <g class="cls-1">
            <path class="cls-6" d="M1044.2,632.7c.7.3,1.7.3,2.1-.6,2.3-5.2,4.7-12.2,10.5-13.8,6.8-1.9,12.7,4.5,12.9,11.3,0,1.2,1.2,1.9,2.3,1.4,5.2-2.7,9.8-.7,10.9,5.4.2,1.3,1.7,1.4,2.5.7,3.6-3,7.9-.9,7.6,3.5h-61.6c2.3-6,5.7-11.4,12.8-7.8Z"/>
          </g>
          <g class="cls-11">
            <path class="cls-6" d="M944.2,618.3c6-5.1,15.6-4.5,21,1.3-.1-.7-.2-1.3-.3-2,3.5,4.1,6.3,9.4,8,14.8.6,1.8,2.5,2.8,4.2,1.8,6.9-4.2,15.8-3.6,15.5,6h-51.4c-4.3-6.8-2.8-16.8,3.1-21.9Z"/>
          </g>
          <g>
            <g class="cls-12">
              <path class="cls-2" d="M1072.5,571.5c-17.8-1.5-34.6,17.2-32,35.8-3.4-4.5-11.7-2.6-13,3-4.9-3.6-12.9,1.2-12.4,7.4-3.8-10-8.5-21-17.9-25.3-8.3-3.8-18.6-.9-24.7,6.1-6.1,7-8.2,17.3-6.3,26.5-5.4-5.8-15-6.4-21-1.3-3.8,3.2-5.7,8.4-5.6,13.5-2.4-6.4-.6-14.5,4.5-18.9,6-5.1,15.6-4.5,21,1.3-1.9-9.3.2-19.6,6.3-26.5,6.1-7,16.4-9.9,24.7-6.1,9.4,4.3,14.1,15.3,17.9,25.3-.5-6.2,7.5-11,12.4-7.4,1.3-5.6,9.6-7.6,13-3-2.6-18.6,14.1-37.3,32-35.8,14.1,1.2,25.6,14.8,27.1,29.3-3.4-12.3-13.7-22.7-26-23.8Z"/>
            </g>
            <g class="cls-12">
              <path class="cls-2" d="M1177.3,635.7c.6-1.9,1.1-3.9,1.4-6,2,0,4,1.2,4.8,3.1.6,1.3.6,2.8.2,4.2-1.6-1.8-4.3-2.5-6.5-1.4Z"/>
            </g>
            <g class="cls-12">
              <path class="cls-2" d="M1174.1,606.4c-5.6-8.4-15.9-13.3-25.4-11.1-12.4,2.8-20.3,15.8-24,28.5-1.3-6.5-11.4-8.3-14.6-2.6-.6-5.6-6.2-10-11.5-8.9.6-1.8.9-3.7,1.1-5.6,4.6.3,8.9,4.2,9.4,9,3.2-5.8,13.3-4,14.6,2.6,3.7-12.7,11.6-25.7,24-28.5,9.5-2.1,19.9,2.7,25.4,11.1,2.7,4.1,4.4,9,4.9,14-.8-3-2.1-5.9-3.9-8.5Z"/>
            </g>
          </g>
          <path class="cls-4" d="M993.3,595.4s-7.5.9-7.8,8.7c0,0-6.6-6.5-10.9-.8"/>
          <path class="cls-5" d="M956.4,629.4s-3.9,1.5-3.2,5.7c0,0-4.3-2.6-5.9,1"/>
          <g class="cls-9">
            <path class="cls-6" d="M1155.4,602.2c-6.8-1.2-13.2.1-17.2,6.1-1.3,1.8-2.4,3.8-3.6,5.9,0-11.4,11-19.1,20.8-12h0Z"/>
          </g>
          <g class="cls-9">
            <path class="cls-6" d="M1072.2,576c-6.8-1.2-13.2.1-17.2,6.1-1.3,1.8-2.4,3.8-3.6,5.9,0-11.4,11-19.1,20.8-12h0Z"/>
          </g>
          <path class="cls-2" d="M1105.5,597.5c-2.2,0-2.2-3.6,0-3.6s2.2,3.6,0,3.6h0Z"/>
          <path class="cls-2" d="M1092,604c-2.2,0-2.2-3.6,0-3.6s2.2,3.6,0,3.6h0Z"/>
          <path class="cls-2" d="M1015.1,599.6c-2.2,0-2.2-3.6,0-3.6s2.2,3.6,0,3.6h0Z"/>
          <path class="cls-2" d="M958,607.3c-2.2,0-2.2-3.6,0-3.6s2.2,3.6,0,3.6h0Z"/>
          <path class="cls-2" d="M1087.8,648.7c-2.2,0-2.2-3.6,0-3.6s2.2,3.6,0,3.6h0Z"/>
          <path class="cls-2" d="M1100.3,650.9c-2.2,0-2.2-3.6,0-3.6s2.2,3.6,0,3.6h0Z"/>
          <path class="cls-2" d="M1037.8,648.3h39.8c-.2-2.4-1.8-4.7-3.7-5.4-2.6-1-5.5,0-7.9,1.7,0-3.2-2-6.3-4.6-6.8-2.6-.6-5.5,1.4-6.3,4.4-.2-3.5-.6-7.4-2.7-9.8-2.2-2.4-6-2.3-8.1.3-2.1,2.6-2.1,7.2,0,9.8-1.5-1.2-3.4-1.7-5-.9s-2.9,2.8-2.7,4.9c0,.7.6,1.4,1.3,2Z"/>
        </g>
        <g class="cls-12">
          <path class="cls-2" d="M382.7,647.2c.2-2.1-1-4.2-2.7-4.9s-3.6-.2-5,.9c2.1-2.6,2.1-7.2,0-9.8-2.1-2.6-5.9-2.7-8.1-.3-2.2,2.4-2.5,6.2-2.7,9.8-.9-3-3.7-5-6.3-4.4-2.6.6-4.7,3.7-4.6,6.8-2.4-1.6-5.3-2.7-7.9-1.7-1.7.7-3.2,2.6-3.6,4.6h-12.3c-2.6,2.7-3.6,7.2-1.6,10.4,2,3.2,7.3,3.6,9.1.3-1.4,4.4,0,9.6,3.5,12.5,3.4,2.9,8.6,3.3,12.4.9,3.8-2.4,5.9-7.4,5-11.9,1.4,4,6.7,5.5,10.2,3.4,3.6-2.1,5.2-6.9,4.6-11.1.4,3.2,4.2,5.3,6.9,3.8,2.4-1.4,3.1-5.2,1.4-7.4h.4c.7-.6,1.2-1.3,1.3-2Z"/>
        </g>
        <g class="cls-12">
          <path class="cls-2" d="M560.6,666.3c-9.4-5.2-22.7,2.1-23.9,13.2,2.1-14.7-3.5-31.3-15.8-38.7-12.4-7.4-30.9-2.1-35.7,11.9,2.9-15.8-4.4-33.2-17.6-41.5-13.2-8.3-31.2-7.1-43.2,3.1-12,10.1-17,28.4-12.1,43.6-6.3-11.6-24.8-10.2-31.8.9-6.8,10.8-3.6,26.2,4.8,35.8l-103.7-.2c-2.3,1.3-3.3,4.9-2.2,7.6,1.1,2.7,4.1,3.9,6.4,2.6-2.8,9.6-2,20.9,2.8,29.3,4.9,8.4,13.9,13.3,22.2,11.1,10.8-2.8,17.7-15.8,20.9-28.5,1.1,6.5,9.9,8.3,12.7,2.6.5,5.6,5.4,10,10,8.9-4.7,17.9,7.2,39.2,22.7,40.8,15.6,1.5,30.2-17.2,27.9-35.8,3,4.5,10.2,2.6,11.4-3,4.2,3.6,11.2-1.2,10.8-7.4,3.3,10,7.4,21,15.6,25.3,7.2,3.8,16.2.9,21.6-6.1s7.1-17.3,5.5-26.5c4.7,5.8,13.1,6.4,18.3,1.3,5.2-5.1,6.4-15,2.8-21.7l72.7-.3c8-7.3,6.3-23-3-28.2Z"/>
        </g>
        <g class="cls-11">
          <path class="cls-6" d="M521,694.7c-2.3-8.6-6.2-16.2-14.3-21.3-12.5-7.8-32.5-9.6-39.2,6.9-1.2,3-5.2,1.1-5.3-1.5-1.5-24.3-31.6-54-51.7-32.4,0,3.9.7,7.8,1.9,11.5-6.3-11.6-24.8-10.2-31.8.9-6.8,10.8-3.6,26.3,4.9,35.8h-74.4c-.6,8.2,7.6,12.2,14.3,6.5,1.5-1.3,4.3-1.1,4.8,1.3,2.1,11.6,10.9,15.4,20.7,10.2,2-1,4.2.2,4.3,2.6.4,12.9,11.6,25.2,24.5,21.5,11.2-3.2,15.7-16.3,20-26.3.7-1.6,2.6-1.7,3.9-1.1,13.4,6.6,19.7-3.1,24.1-14.2h11.5c0,9.1,8.7,9.7,15.5,5.5,1.7-1,3.6,0,4.2,1.8,1.7,5.5,4.5,10.7,8,14.8,0-.7-.2-1.3-.3-2,5.4,5.8,15,6.4,21,1.3,5.9-5.1,7.4-15,3.2-21.7h30.4Z"/>
        </g>
        <g>
          <path class="cls-2" d="M503,677.2c6.9,4.3,10.7,10.5,13.2,17.5h4.8c-2.3-8.6-6.2-16.3-14.3-21.3-11.2-7-28.5-9.1-36.7,2.4,9-7,23.3-4.6,33.1,1.4Z"/>
          <path class="cls-2" d="M458.5,682.6c.2,2.6,4.1,4.5,5.3,1.5.3-.8.7-1.6,1.1-2.3-1.4-.2-2.7-1.5-2.8-3-1.5-24.3-31.6-54-51.7-32.4,0,.2,0,.3,0,.5,19.9-14.8,46.7,12.8,48.1,35.7Z"/>
          <path class="cls-2" d="M408.6,661.7c-1-3.1-1.5-6.2-1.8-9.4-8-4.8-20.1-2.4-25.9,5.8,8.5-6.7,22.4-6.1,27.7,3.7Z"/>
        </g>
        <path class="cls-6" d="M539.2,680.4c7.5-7.9,18-12.2,26.7-2.8,1,1.1,2,2.4,2.8,3.6-.2-6.1-3-12.1-8.1-15-8.8-4.9-21,1.2-23.5,11.1.8,1,1.5,2,2.2,3Z"/>
        <g>
          <path class="cls-2" d="M536.6,687.7c1.2-11.1,14.6-18.4,23.9-13.2,4.1,2.3,6.8,6.7,7.7,11.4,1.5-7.4-1.3-16-7.7-19.6-8.9-5-21.4,1.5-23.7,11.6.3,3.3.2,6.6-.3,9.8Z"/>
          <path class="cls-2" d="M485.1,661c4.8-14,23.3-19.3,35.7-11.9,9.5,5.7,15,16.8,16.1,28.3,1.3-14.2-4.3-29.5-16.1-36.5-11.9-7.1-29.6-2.5-35.1,10.5.2,3.2,0,6.4-.5,9.6Z"/>
          <path class="cls-2" d="M424.4,622.5c12-10.1,30-11.4,43.2-3.1,10.1,6.4,16.8,18.1,18,30.4,1.6-15-5.6-30.8-18-38.6-13.2-8.3-31.2-7.1-43.2,3.1-9.9,8.4-15.1,22.3-13.8,35.6,1-10.5,5.9-20.7,13.8-27.4Z"/>
        </g>
        <g class="cls-12">
          <path class="cls-2" d="M489.4,630.6c-2.6-2.7-3.6-7.3-1.6-10.5,2-3.2,7.3-3.6,9.1-.3-1.4-4.4,0-9.6,3.5-12.5,3.4-2.9,8.6-3.3,12.4-.9,3.8,2.4,5.9,7.4,5,11.9,1.4-4,6.7-5.5,10.2-3.4,3.6,2.1,5.2,6.9,4.6,11.1.4-3.2,4.2-5.3,6.9-3.8,2.7,1.5,3.2,6,.9,8.1l-51,.2Z"/>
        </g>
        <g>
          <path class="cls-2" d="M532.7,628.5c.4-3.2,4.2-5.3,6.9-3.8,1.2.7,1.9,1.9,2.2,3.3.4-2.1-.4-4.6-2.2-5.6-2.6-1.4-6.2.4-6.8,3.3,0,.9,0,1.9,0,2.8Z"/>
          <path class="cls-2" d="M517.9,620.8c1.4-4,6.7-5.5,10.2-3.4,2.7,1.6,4.3,4.8,4.6,8.1.4-4.1-1.2-8.5-4.6-10.5-3.4-2-8.5-.7-10.1,3,0,.9,0,1.9-.2,2.8Z"/>
          <path class="cls-2" d="M500.4,609.7c3.4-2.9,8.6-3.3,12.4-.9,2.9,1.8,4.8,5.2,5.2,8.7.5-4.3-1.6-8.8-5.2-11.1-3.8-2.4-9-2-12.4.9-2.8,2.4-4.3,6.4-4,10.2.3-3,1.7-5.9,4-7.9Z"/>
        </g>
        <path class="cls-2" d="M397,665.9c9.2.6,16.1,7.8,16.3,17,0,0-1.7-.7-1.7-.7,6.1-5.8,16.7-9.7,22.1-.8-6.8-7.7-16.3-2.3-22.1,3.7-.4-2.6-.3-5.4-1.3-7.9-1.9-5.8-7.5-9.7-13.2-11.3h0Z"/>
        <g class="cls-9">
          <path class="cls-6" d="M449.4,626.5c9.8-7.1,20.9.6,20.8,12-1.2-2.1-2.3-4.1-3.6-5.9-4-6-10.3-7.3-17.2-6.1h0Z"/>
        </g>
        <path class="cls-2" d="M540.8,653.4c2.2,0,2.2-3.6,0-3.6s-2.2,3.6,0,3.6h0Z"/>
        <path class="cls-2" d="M480.6,609.7c2.2,0,2.2-3.6,0-3.6s-2.2,3.6,0,3.6h0Z"/>
        <path class="cls-2" d="M489.9,614.1c2.2,0,2.2-3.6,0-3.6s-2.2,3.6,0,3.6h0Z"/>
        <path class="cls-2" d="M400.6,643.5c2.2,0,2.2-3.6,0-3.6s-2.2,3.6,0,3.6h0Z"/>
        <path class="cls-2" d="M556.4,685c2.2,0,2.2-3.6,0-3.6s-2.2,3.6,0,3.6h0Z"/>
        <path class="cls-2" d="M528.4,667.5c2.2,0,2.2-3.6,0-3.6s-2.2,3.6,0,3.6h0Z"/>
        <path class="cls-2" d="M394.7,695.3h-39.8c.2-2.4,1.8-4.7,3.7-5.4,2.6-1,5.5,0,7.9,1.7,0-3.2,2-6.3,4.6-6.8,2.6-.6,5.5,1.4,6.3,4.4.2-3.5.6-7.4,2.7-9.8,2.2-2.4,6-2.3,8.1.3,2.1,2.6,2.1,7.2,0,9.8,1.5-1.2,3.4-1.7,5-.9s2.9,2.8,2.7,4.9c0,.7-.6,1.4-1.3,2Z"/>
        <path class="cls-2" d="M483.7,694.1h37.8c-.2,1.2-1.7,2.3-3.6,2.6-2.5.5-5.2,0-7.5-.8,0,1.5-1.9,3-4.4,3.3-2.5.3-5.2-.7-6-2.1-.2,1.7-.5,3.6-2.6,4.7-2.1,1.2-5.7,1.1-7.7-.1-2-1.3-2-3.5,0-4.7-1.4.6-3.2.8-4.8.4-1.6-.4-2.8-1.4-2.5-2.4,0-.3.6-.7,1.2-.9Z"/>
        <path class="cls-2" d="M147.1,622.1h37.8c-.2,1.2-1.7,2.3-3.6,2.6-2.5.5-5.2,0-7.5-.8,0,1.5-1.9,3-4.4,3.3-2.5.3-5.2-.7-6-2.1-.2,1.7-.5,3.6-2.6,4.7-2.1,1.2-5.7,1.1-7.7-.1-2-1.3-2-3.5,0-4.7-1.4.6-3.2.8-4.8.4s-2.8-1.4-2.5-2.4c0-.3.6-.7,1.2-.9Z"/>
      </g>
      <g>
        <path class="cls-2" d="M816.3,487.5h33c-.1-1-1.5-1.9-3.1-2.2-2.2-.4-4.6,0-6.5.7,0-1.3-1.6-2.5-3.8-2.8-2.2-.2-4.5.6-5.3,1.8-.2-1.4-.5-3-2.2-3.9-1.8-1-5-.9-6.8.1-1.7,1-1.7,2.9,0,3.9-1.2-.5-2.8-.7-4.2-.4-1.4.3-2.4,1.1-2.2,2,0,.3.5.5,1,.8Z"/>
        <g class="cls-12">
          <path class="cls-2" d="M853.1,533.7c6.7-6.7,8-18.1,2.9-26-5-8-15.9-11.7-24.8-8.5,3.4-8.7-5.8-19.4-14.9-17.5,1.8-4,.6-9.1-2.7-11.8-3.4-2.8-8.6-2.9-12.1-.3-.6-16.3-14.7-30.5-30.9-32.9s-32.9,6.2-42,19.7c-9.1,13.5-11,31.2-6.9,47-2.9-1-5.9,1.9-6.1,5-.2,3,1.4,5.9,3,8.5-5.4-2.7-12.6-2.5-17,1.6-4.4,4.1-4.5,12.5.6,15.7l150.9-.4Z"/>
        </g>
        <g class="cls-10">
          <path class="cls-6" d="M834.4,513.8c-9.6-11.5-23.7-11-36.1-4.5-1.5.8-3.1,0-3.7-1.5-4.2-11.8-14.5-16-25.4-9.4-1.8,1.1-3.5-.4-3.8-2.2-1.5-11-10.4-20.3-20.7-23.8-9.8-3.3-18.9-.5-24.6,7.2-1,7.9-.4,16,1.6,23.7-2.9-1-5.9,1.9-6.1,5-.2,3,1.4,5.9,3,8.5-5.4-2.7-12.6-2.5-17,1.6-4.4,4.1-4.5,12.5.6,15.7l140.8-.4c-1.2-7.3-4-14.3-8.7-19.9Z"/>
        </g>
        <g class="cls-12">
          <path class="cls-2" d="M725.9,461.8c9.1-13.5,25.9-22.1,42-19.7,16.1,2.4,30.3,16.6,30.9,32.9,3.5-2.6,8.8-2.5,12.1.3s4.6,7.9,2.7,11.8c9.1-2,18.3,8.7,14.9,17.5,8.9-3.2,19.7.5,24.8,8.5,3.4,5.3,3.9,12.1,1.9,18.1,4.8-6.8,5.2-16.5.8-23.5-5-8-15.9-11.7-24.8-8.5,3.4-8.7-5.8-19.4-14.9-17.5,1.8-4,.6-9.1-2.7-11.8-3.4-2.8-8.6-2.9-12.1-.3-.6-16.3-14.7-30.5-30.9-32.9s-32.9,6.2-42,19.7c-1.8,2.6-3.3,5.4-4.5,8.3.6-1,1.2-1.9,1.8-2.9Z"/>
        </g>
        <g class="cls-7">
          <path class="cls-2" d="M828.2,517c-11-7.3-29.3-5.2-39.4,2.7-1.5,1.2-3.5.8-4.2-1.1-3.5-9.7-15.2-20-23.9-9.8-1.4,1.7-4.3.3-4.3-1.8.3-16.9-23-37.7-36.5-25.2-.6,7.2,0,14.5,1.8,21.5-2.9-1-5.9,1.9-6.1,5-.2,3,1.4,5.9,3,8.5-5.4-2.7-12.6-2.5-17,1.6-4.4,4.1-4.5,12.5.6,15.7l136.7-.4c-1.9-6.6-4.7-12.7-10.7-16.7Z"/>
        </g>
        <g class="cls-7">
          <path class="cls-2" d="M719.9,491c13.5-12.6,36.8,8.3,36.5,25.2,0,2.1,2.8,3.4,4.3,1.8,8.8-10.3,20.4.1,23.9,9.8.7,1.9,2.6,2.3,4.2,1.1,10.2-7.9,28.4-10,39.4-2.7,3.1,2,5.3,4.6,7,7.6h3.7c-1.9-6.6-4.7-12.7-10.7-16.7-11-7.3-29.3-5.2-39.4,2.7-1.5,1.2-3.5.8-4.2-1.1-3.5-9.7-15.2-20-23.9-9.8-1.4,1.7-4.3.3-4.3-1.8.3-16.9-23-37.7-36.5-25.2-.3,3.3-.3,6.6,0,9.9,0-.3,0-.6,0-.8Z"/>
        </g>
        <g class="cls-9">
          <path class="cls-6" d="M754.9,456.4c6.6-.2,13.3,4.5,14.5,11.2.2.9.2,1.9.4,2.9l-2.5-1c5.4-5,15.4-8.1,19.7-.2-6.6-6.2-14.6-.7-19.9,4.4,0,0-.3-3.1-.3-3.1,0-7.1-5.4-12.1-11.9-14.2h0Z"/>
        </g>
        <g class="cls-9">
          <path class="cls-6" d="M729,506.2c6.8-5.4,16.1-1.5,17.9,6.9.9,5.6-.5,1.5-2.2-.6-3.7-5.7-9-7-15.6-6.2h0Z"/>
        </g>
        <path class="cls-2" d="M697.1,467.9h44.3c-.2-2.2-2-4.3-4.2-5.1-2.9-.9-6.1,0-8.8,1.6,0-3-2.2-5.8-5.1-6.4-2.9-.5-6.1,1.3-7,4.1-.2-3.3-.6-6.8-3-9.1-2.5-2.3-6.7-2.2-9.1.2-2.3,2.4-2.3,6.7,0,9.1-1.6-1.1-3.7-1.5-5.6-.9-1.8.7-3.2,2.6-3,4.5,0,.6.7,1.3,1.4,1.8Z"/>
        <path class="cls-2" d="M707.2,511.3c1.9,0,1.9-3,0-3s-1.9,3,0,3h0Z"/>
        <path class="cls-2" d="M712.7,505c1.9,0,1.9-3,0-3s-1.9,3,0,3h0Z"/>
        <path class="cls-2" d="M725.4,454.2c1.9,0,1.9-3,0-3s-1.9,3,0,3h0Z"/>
        <path class="cls-2" d="M735.3,444.2c1.9,0,1.9-3,0-3s-1.9,3,0,3h0Z"/>
        <path class="cls-2" d="M844.2,493.2c1.9,0,1.9-3,0-3s-1.9,3,0,3h0Z"/>
      </g>
      <g>
        <g class="cls-12">
          <path class="cls-2" d="M31.7,366.1c-8.3-4.8-14.1-14.8-11.8-24.1,2.4-9.3,14.7-15.3,22.5-9.6-2.3-4.5-1.2-10.4,2.4-13.8,3.7-3.4,9.6-4.1,14-1.5-3.4-11.1,2.2-23.9,12.1-30,9.9-6,23.1-5.5,33.2.4,10,5.8,16.9,16.4,19.3,27.8,5.2-2.3,11.8-1.2,16,2.6s5.9,10.2,4.2,15.7c8.7-4.2,20.5-.5,25.2,7.9,4.8,8.4,1.9,20.4-6.2,25.7l-130.9-.9Z"/>
        </g>
        <g class="cls-8">
          <path class="cls-6" d="M118.3,360.1c-1.8.9-3.8,0-4.4-1.8-4.4-13.3-25.1-28.3-35.2-12.1-1.1,1.8-4.1,2.1-5.2,0-5.4-10.5-9.7-25.8-20.1-30.8-3.2-.1-6.4.9-8.7,3.1-3.7,3.4-4.7,9.4-2.4,13.8-7.8-5.6-20.1.3-22.5,9.6-2.4,9.3,3.5,19.3,11.8,24.1l113.7.8c-5.9-8.6-14.7-13.3-27-6.8Z"/>
        </g>
        <g class="cls-10">
          <path class="cls-6" d="M80.2,359.1c-8.5-8-25.4-10.6-34.3-1.8-1.5,1.5-4.5.9-5-1.3-2-8.6-9.4-18.4-18.4-19.2-1.2,1.6-2.1,3.3-2.6,5.2-2.4,9.3,3.5,19.3,11.8,24.1l54,.4c-1.4-2.7-3.2-5.2-5.5-7.3Z"/>
        </g>
        <g class="cls-12">
          <path class="cls-2" d="M37.9,361.3c.5,2.2,3.4,2.9,5,1.3,8.9-8.9,25.8-6.2,34.3,1.8.7.6,1.3,1.3,1.9,2h6.6c-1.4-2.7-3.2-5.2-5.5-7.3-8.5-8-25.4-10.6-34.3-1.8-1.5,1.5-4.5.9-5-1.3-2-8.6-9.4-18.4-18.4-19.2-1.2,1.6-2.1,3.3-2.6,5.2,0,0,0,0,0,.1,8.9,1.1,16.1,10.8,18,19.2Z"/>
        </g>
        <g class="cls-12">
          <path class="cls-2" d="M168.8,341.3c-4.8-8.4-16.5-12.1-25.2-7.9,1.8-5.4,0-11.8-4.2-15.7s-10.8-4.9-16-2.6c-2.4-11.3-9.3-21.9-19.3-27.8-10-5.8-23.3-6.4-33.2-.4-2.8,1.7-5.2,3.9-7.2,6.5.7-.6,1.5-1.1,2.3-1.6,9.9-6,23.1-5.5,33.2.4,10,5.8,16.9,16.4,19.3,27.8,5.2-2.3,11.8-1.2,16,2.6s5.9,10.2,4.2,15.7c8.7-4.2,20.5-.5,25.2,7.9,3.6,6.4,2.8,14.7-1.2,20.7,8-5.4,10.9-17.2,6.1-25.6Z"/>
        </g>
        <path class="cls-2" d="M44.9,306.5h39.4c-.2-1.1-1.7-2.3-3.7-2.6-2.6-.5-5.4,0-7.8.8,0-1.5-2-3-4.5-3.3s-5.4.7-6.3,2.1c-.2-1.7-.5-3.6-2.7-4.7-2.2-1.2-6-1.1-8.1.1-2.1,1.2-2.1,3.5,0,4.7-1.4-.6-3.3-.8-5-.4-1.6.4-2.9,1.4-2.6,2.4,0,.3.6.7,1.3.9Z"/>
        <path class="cls-2" d="M71.2,311.8h39.4c-.2-1.1-1.7-2.3-3.7-2.6-2.6-.5-5.4,0-7.8.8,0-1.5-2-3-4.5-3.3-2.6-.3-5.4.7-6.3,2.1-.2-1.7-.5-3.6-2.7-4.7-2.2-1.2-6-1.1-8.1.1s-2.1,3.5,0,4.7c-1.4-.6-3.3-.8-5-.4-1.6.4-2.9,1.4-2.6,2.4,0,.3.6.7,1.3.9Z"/>
        <path class="cls-2" d="M107.7,361h50.5c-.2-1.5-2.2-2.9-4.7-3.4-3.3-.6-7,0-10,1.1.1-2-2.5-3.9-5.8-4.2-3.3-.4-6.9.9-8,2.7-.3-2.2-.7-4.5-3.4-6-2.8-1.5-7.7-1.4-10.3.2-2.7,1.6-2.7,4.4,0,6-1.9-.7-4.3-1-6.4-.6-2.1.4-3.7,1.7-3.4,3,0,.4.8.8,1.6,1.2Z"/>
        <path class="cls-2" d="M111.6,306.1h18c0-.8-.8-1.6-1.7-1.8-1.2-.3-2.5,0-3.6.6,0-1.1-.9-2.1-2.1-2.3s-2.5.5-2.9,1.5c0-1.2-.3-2.5-1.2-3.3-1-.8-2.7-.8-3.7,0-.9.9-.9,2.4,0,3.3-.7-.4-1.5-.6-2.3-.3-.7.2-1.3.9-1.2,1.6,0,.2.3.5.6.7Z"/>
        <path class="cls-2" d="M22.5,333.4h31.1c-.1-1.4-1.4-2.7-2.9-3.2-2-.6-4.3,0-6.2,1,0-1.9-1.5-3.6-3.6-4-2-.3-4.3.8-5,2.6-.2-2-.4-4.3-2.1-5.7-1.7-1.4-4.7-1.3-6.4.2s-1.6,4.2,0,5.7c-1.1-.7-2.6-1-3.9-.5-1.3.4-2.3,1.6-2.1,2.9,0,.4.5.8,1,1.1Z"/>
        <path class="cls-2" d="M89.2,351.8h18c0-.8-.8-1.6-1.7-1.8-1.2-.3-2.5,0-3.6.6,0-1.1-.9-2.1-2.1-2.3s-2.5.5-2.9,1.5c0-1.2-.3-2.5-1.2-3.3-1-.8-2.7-.8-3.7,0-.9.9-.9,2.4,0,3.3-.7-.4-1.5-.6-2.3-.3-.7.2-1.3.9-1.2,1.6,0,.2.3.5.6.7Z"/>
        <path class="cls-2" d="M65.4,321.3c8,0,14.6,6.1,14.8,14.2,0,0-2-.8-2-.8,5.4-5,15.1-8.2,19.7-.6-6.3-6.3-14.6-1.3-19.7,3.9-.2-1.4-.4-3.4-.6-4.9-1-6.1-6.4-10.1-12.1-11.8h0Z"/>
        <g class="cls-9">
          <path class="cls-6" d="M119.2,328.1c8.2-4.3,16.2,3,14.5,11.7-.6-1.2-1-2.5-1.6-3.7-2.3-5.6-7-7.6-12.9-8h0Z"/>
        </g>
        <g class="cls-9">
          <path class="cls-6" d="M87.3,291.7c7.9-4.8,16.4,2,15.2,10.8-.7-1.2-1.2-2.5-1.9-3.6-2.6-5.4-7.5-7.2-13.3-7.2h0Z"/>
        </g>
        <path class="cls-2" d="M152.2,325.9c2.3,0,2.3-3.6,0-3.6s-2.3,3.6,0,3.6h0Z"/>
        <path class="cls-2" d="M40.8,315.4c2.3,0,2.3-3.6,0-3.6s-2.3,3.6,0,3.6h0Z"/>
        <path class="cls-2" d="M120.6,299.4c2.3,0,2.3-3.6,0-3.6s-2.3,3.6,0,3.6h0Z"/>
        <path class="cls-2" d="M114.5,348.5c2.3,0,2.3-3.6,0-3.6s-2.3,3.6,0,3.6h0Z"/>
        <path class="cls-2" d="M28,355.3c2.3,0,2.3-3.6,0-3.6s-2.3,3.6,0,3.6h0Z"/>
        <path class="cls-2" d="M144.6,316.9c2.3,0,2.3-3.6,0-3.6s-2.3,3.6,0,3.6h0Z"/>
      </g>
      <g>
        <g class="cls-12">
          <path class="cls-2" d="M965.5,798.2c-8.3-4.8-14.1-14.8-11.8-24.1,2.4-9.3,14.7-15.3,22.5-9.6-2.3-4.5-1.2-10.4,2.4-13.8,3.7-3.4,9.6-4.1,14-1.5-3.4-11.1,2.2-23.9,12.1-30,9.9-6,23.1-5.5,33.2.4,10,5.8,16.9,16.4,19.3,27.8,5.2-2.3,11.8-1.2,16,2.6s5.9,10.2,4.2,15.7c8.7-4.2,20.5-.5,25.2,7.9,4.8,8.4,1.9,20.4-6.2,25.7l-130.9-.9Z"/>
        </g>
        <g class="cls-8">
          <path class="cls-6" d="M1052.1,792.2c-1.8.9-3.8,0-4.4-1.8-4.4-13.3-25.1-28.3-35.2-12.1-1.1,1.8-4.1,2.1-5.2,0-5.4-10.5-9.7-25.8-20.1-30.8-3.2-.1-6.4.9-8.7,3.1-3.7,3.4-4.7,9.4-2.4,13.8-7.8-5.6-20.1.3-22.5,9.6-2.4,9.3,3.5,19.3,11.8,24.1l113.7.8c-5.9-8.6-14.7-13.3-27-6.8Z"/>
        </g>
        <g class="cls-10">
          <path class="cls-6" d="M1014,791.2c-8.5-8-25.4-10.6-34.3-1.8-1.5,1.5-4.5.9-5-1.3-2-8.6-9.4-18.4-18.4-19.2-1.2,1.6-2.1,3.3-2.6,5.2-2.4,9.3,3.5,19.3,11.8,24.1l54,.4c-1.4-2.7-3.2-5.2-5.5-7.3Z"/>
        </g>
        <g class="cls-12">
          <path class="cls-2" d="M971.7,793.4c.5,2.2,3.4,2.9,5,1.3,8.9-8.9,25.8-6.2,34.3,1.8.7.6,1.3,1.3,1.9,2h6.6c-1.4-2.7-3.2-5.2-5.5-7.3-8.5-8-25.4-10.6-34.3-1.8-1.5,1.5-4.5.9-5-1.3-2-8.6-9.4-18.4-18.4-19.2-1.2,1.6-2.1,3.3-2.6,5.2,0,0,0,0,0,.1,8.9,1.1,16.1,10.8,18,19.2Z"/>
        </g>
        <g class="cls-12">
          <path class="cls-2" d="M1102.6,773.4c-4.8-8.4-16.5-12.1-25.2-7.9,1.8-5.4,0-11.8-4.2-15.7s-10.8-4.9-16-2.6c-2.4-11.3-9.3-21.9-19.3-27.8-10-5.8-23.3-6.4-33.2-.4-2.8,1.7-5.2,3.9-7.2,6.5.7-.6,1.5-1.1,2.3-1.6,9.9-6,23.1-5.5,33.2.4,10,5.8,16.9,16.4,19.3,27.8,5.2-2.3,11.8-1.2,16,2.6s5.9,10.2,4.2,15.7c8.7-4.2,20.5-.5,25.2,7.9,3.6,6.4,2.8,14.7-1.2,20.7,8-5.4,10.9-17.2,6.1-25.6Z"/>
        </g>
        <path class="cls-2" d="M978.7,738.6h39.4c-.2-1.1-1.7-2.3-3.7-2.6-2.6-.5-5.4,0-7.8.8,0-1.5-2-3-4.5-3.3s-5.4.7-6.3,2.1c-.2-1.7-.5-3.6-2.7-4.7-2.2-1.2-6-1.1-8.1.1-2.1,1.2-2.1,3.5,0,4.7-1.4-.6-3.3-.8-5-.4-1.6.4-2.9,1.4-2.6,2.4,0,.3.6.7,1.3.9Z"/>
        <path class="cls-2" d="M1005,743.9h39.4c-.2-1.1-1.7-2.3-3.7-2.6-2.6-.5-5.4,0-7.8.8,0-1.5-2-3-4.5-3.3-2.6-.3-5.4.7-6.3,2.1-.2-1.7-.5-3.6-2.7-4.7-2.2-1.2-6-1.1-8.1.1s-2.1,3.5,0,4.7c-1.4-.6-3.3-.8-5-.4-1.6.4-2.9,1.4-2.6,2.4,0,.3.6.7,1.3.9Z"/>
        <path class="cls-2" d="M1041.5,793h50.5c-.2-1.5-2.2-2.9-4.7-3.4-3.3-.6-7,0-10,1.1.1-2-2.5-3.9-5.8-4.2-3.3-.4-6.9.9-8,2.7-.3-2.2-.7-4.5-3.4-6-2.8-1.5-7.7-1.4-10.3.2-2.7,1.6-2.7,4.4,0,6-1.9-.7-4.3-1-6.4-.6-2.1.4-3.7,1.7-3.4,3,0,.4.8.8,1.6,1.2Z"/>
        <path class="cls-2" d="M1045.4,738.2h18c0-.8-.8-1.6-1.7-1.8-1.2-.3-2.5,0-3.6.6,0-1.1-.9-2.1-2.1-2.3s-2.5.5-2.9,1.5c0-1.2-.3-2.5-1.2-3.3-1-.8-2.7-.8-3.7,0-.9.9-.9,2.4,0,3.3-.7-.4-1.5-.6-2.3-.3-.7.2-1.3.9-1.2,1.6,0,.2.3.5.6.7Z"/>
        <path class="cls-2" d="M956.3,765.4h31.1c-.1-1.4-1.4-2.7-2.9-3.2-2-.6-4.3,0-6.2,1,0-1.9-1.5-3.6-3.6-4-2-.3-4.3.8-5,2.6-.2-2-.4-4.3-2.1-5.7-1.7-1.4-4.7-1.3-6.4.2s-1.6,4.2,0,5.7c-1.1-.7-2.6-1-3.9-.5-1.3.4-2.3,1.6-2.1,2.9,0,.4.5.8,1,1.1Z"/>
        <path class="cls-2" d="M1023,783.9h18c0-.8-.8-1.6-1.7-1.8-1.2-.3-2.5,0-3.6.6,0-1.1-.9-2.1-2.1-2.3s-2.5.5-2.9,1.5c0-1.2-.3-2.5-1.2-3.3-1-.8-2.7-.8-3.7,0-.9.9-.9,2.4,0,3.3-.7-.4-1.5-.6-2.3-.3-.7.2-1.3.9-1.2,1.6,0,.2.3.5.6.7Z"/>
        <path class="cls-2" d="M999.3,753.4c8,0,14.6,6.1,14.8,14.2,0,0-2-.8-2-.8,5.4-5,15.1-8.2,19.7-.6-6.3-6.3-14.6-1.3-19.7,3.9-.2-1.4-.4-3.4-.6-4.9-1-6.1-6.4-10.1-12.1-11.8h0Z"/>
        <g class="cls-9">
          <path class="cls-6" d="M1053,760.2c8.2-4.3,16.2,3,14.5,11.7-.6-1.2-1-2.5-1.6-3.7-2.3-5.6-7-7.6-12.9-8h0Z"/>
        </g>
        <g class="cls-9">
          <path class="cls-6" d="M1021.1,723.7c7.9-4.8,16.4,2,15.2,10.8-.7-1.2-1.2-2.5-1.9-3.6-2.6-5.4-7.5-7.2-13.3-7.2h0Z"/>
        </g>
        <path class="cls-2" d="M1086,758c2.3,0,2.3-3.6,0-3.6s-2.3,3.6,0,3.6h0Z"/>
        <path class="cls-2" d="M974.6,747.4c2.3,0,2.3-3.6,0-3.6s-2.3,3.6,0,3.6h0Z"/>
        <path class="cls-2" d="M1054.4,731.5c2.3,0,2.3-3.6,0-3.6s-2.3,3.6,0,3.6h0Z"/>
        <path class="cls-2" d="M1048.4,780.6c2.3,0,2.3-3.6,0-3.6s-2.3,3.6,0,3.6h0Z"/>
        <path class="cls-2" d="M961.8,787.3c2.3,0,2.3-3.6,0-3.6s-2.3,3.6,0,3.6h0Z"/>
        <path class="cls-2" d="M1078.5,748.9c2.3,0,2.3-3.6,0-3.6s-2.3,3.6,0,3.6h0Z"/>
      </g>
      <g>
        <path class="cls-2" d="M74.7,716.5h33c-.1-1-1.5-1.9-3.1-2.2-2.2-.4-4.6,0-6.5.7,0-1.3-1.6-2.5-3.8-2.8-2.2-.2-4.5.6-5.3,1.8-.2-1.4-.5-3-2.2-3.9-1.8-1-5-.9-6.8.1-1.7,1-1.7,2.9,0,3.9-1.2-.5-2.8-.7-4.2-.4-1.4.3-2.4,1.1-2.2,2,0,.3.5.5,1,.8Z"/>
        <path class="cls-2" d="M220.7,740.1h33c-.1-1-1.5-1.9-3.1-2.2-2.2-.4-4.6,0-6.5.7,0-1.3-1.6-2.5-3.8-2.8-2.2-.2-4.5.6-5.3,1.8-.2-1.4-.5-3-2.2-3.9-1.8-1-5-.9-6.8.1-1.7,1-1.7,2.9,0,3.9-1.2-.5-2.8-.7-4.2-.4-1.4.3-2.4,1.1-2.2,2,0,.3.5.5,1,.8Z"/>
        <path class="cls-2" d="M221.3,716.2h-16.9c0-1,.7-1.9,1.6-2.2,1.1-.4,2.3,0,3.3.7,0-1.3.8-2.5,1.9-2.8,1.1-.2,2.3.6,2.7,1.8,0-1.4.2-3,1.1-3.9.9-1,2.6-.9,3.4.1.9,1,.9,2.9,0,3.9.6-.5,1.4-.7,2.1-.4.7.3,1.2,1.1,1.1,2,0,.3-.3.5-.5.8Z"/>
        <path class="cls-2" d="M33.8,743h-16.9c0-1,.7-1.9,1.6-2.2,1.1-.4,2.3,0,3.3.7,0-1.3.8-2.5,1.9-2.8,1.1-.2,2.3.6,2.7,1.8,0-1.4.2-3,1.1-3.9.9-1,2.6-.9,3.4.1s.9,2.9,0,3.9c.6-.5,1.4-.7,2.1-.4.7.3,1.2,1.1,1.1,2,0,.3-.3.5-.5.8Z"/>
        <path class="cls-2" d="M14.1,758.5h33c-.1-1-1.5-1.9-3.1-2.2-2.2-.4-4.6,0-6.5.7,0-1.3-1.6-2.5-3.8-2.8-2.2-.2-4.5.6-5.3,1.8-.2-1.4-.5-3-2.2-3.9-1.8-1-5-.9-6.8.1-1.7,1-1.7,2.9,0,3.9-1.2-.5-2.8-.7-4.2-.4s-2.4,1.1-2.2,2c0,.3.5.5,1,.8Z"/>
        <g class="cls-12">
          <path class="cls-2" d="M29.6,758.8c-2.3-1.1-3.3-4.1-2.2-6.4,1.1-2.2,4.1-3.3,6.4-2.2-2.8-8-2-17.4,2.8-24.4,4.9-7,13.9-11,22.2-9.3,10.8,2.3,17.7,13.1,20.9,23.7,1.1-5.4,9.9-6.9,12.7-2.1.5-4.6,5.4-8.3,10-7.4-4.7-14.9,7.2-32.6,22.7-33.9,15.6-1.3,30.2,14.3,27.9,29.8,3-3.8,10.2-2.2,11.4,2.5,4.2-3,11.2,1,10.8,6.1,3.3-8.3,7.4-17.4,15.6-21,7.2-3.1,16.2-.7,21.6,5.1,5.4,5.8,7.2,14.4,5.5,22.1,4.7-4.8,13.1-5.3,18.3-1.1,5.2,4.2,6.5,12.6,2.7,18.1l-209.4.3Z"/>
        </g>
        <g class="cls-13">
          <path class="cls-6" d="M163,746.4c-1.1.5-2.8.4-3.4-.9-3.7-8.3-7.7-19.2-17.5-21.8-11.3-3.1-21,7.1-21.4,17.9,0,2-2.1,3-3.8,2.2-8.5-4.3-16.3-1.1-18.1,8.5-.4,2-2.9,2.2-4.2,1.1-5.9-4.8-13.1-1.4-12.5,5.5h102.1c-3.9-9.5-9.4-17.9-21.2-12.3Z"/>
        </g>
        <path class="cls-2" d="M83.8,758.8c2.4-2.8,6.9-3.3,10.9,0,0,0,0,0,0,0h3.6c.3-.3.5-.6.6-1.1,1.8-9.6,9.6-12.8,18.1-8.5,1.7.9,3.7-.2,3.8-2.2.3-10.7,10.1-20.9,21.4-17.9,9.7,2.7,13.7,13.6,17.5,21.8.6,1.3,2.3,1.4,3.4.9,9.5-4.5,14.9,0,18.7,6.8h2.6c-3.9-9.4-9.4-17.8-21.2-12.2-1.1.5-2.8.4-3.4-.9-3.7-8.3-7.7-19.2-17.5-21.8-11.3-3.1-21,7.1-21.4,17.9,0,2-2.1,3-3.8,2.2-8.5-4.3-16.3-1.1-18.1,8.5-.4,2-2.9,2.2-4.2,1.1-5.9-4.8-13.1-1.4-12.5,5.5h1.6Z"/>
        <g class="cls-1">
          <path class="cls-6" d="M149,752.4c-.6.3-1.5.2-1.8-.5-2-4.4-4.1-10.1-9.2-11.5-5.9-1.6-11.1,3.8-11.3,9.4,0,1-1.1,1.6-2,1.1-4.5-2.3-8.6-.6-9.5,4.5-.2,1.1-1.5,1.1-2.2.6-3.1-2.5-6.9-.7-6.6,2.9h53.8c-2-5-4.9-9.4-11.2-6.5Z"/>
        </g>
        <g class="cls-11">
          <path class="cls-6" d="M236.3,740.4c-5.2-4.2-13.6-3.7-18.3,1.1.1-.6.2-1.1.3-1.7-3.1,3.4-5.5,7.8-7,12.3-.5,1.5-2.2,2.3-3.7,1.5-6-3.5-13.8-3-13.5,4.9h44.9c3.7-5.6,2.5-14-2.7-18.2Z"/>
        </g>
        <g>
          <g class="cls-12">
            <path class="cls-2" d="M124.3,701.5c15.6-1.3,30.2,14.3,27.9,29.8,3-3.8,10.2-2.2,11.4,2.5,4.2-3,11.2,1,10.8,6.1,3.3-8.3,7.4-17.4,15.6-21,7.2-3.1,16.2-.7,21.6,5.1,5.4,5.8,7.2,14.4,5.5,22.1,4.7-4.8,13.1-5.3,18.3-1.1,3.3,2.7,5,7,4.9,11.2,2.1-5.4.5-12.1-4-15.7-5.2-4.2-13.6-3.7-18.3,1.1,1.7-7.7-.2-16.3-5.5-22.1-5.4-5.8-14.4-8.2-21.6-5.1-8.2,3.6-12.3,12.7-15.6,21,.4-5.2-6.6-9.1-10.8-6.1-1.1-4.7-8.4-6.3-11.4-2.5,2.3-15.5-12.3-31-27.9-29.8-12.3,1-22.3,12.3-23.6,24.3,3-10.2,12-18.9,22.7-19.8Z"/>
          </g>
          <g class="cls-12">
            <path class="cls-2" d="M32.8,754.9c-.6-1.6-1-3.3-1.2-5-1.7,0-3.5,1-4.2,2.6-.5,1.1-.5,2.4-.2,3.5,1.4-1.5,3.8-2.1,5.6-1.1Z"/>
          </g>
          <g class="cls-12">
            <path class="cls-2" d="M35.7,730.5c4.9-7,13.9-11,22.2-9.3,10.8,2.3,17.7,13.1,20.9,23.7,1.1-5.4,9.9-6.9,12.7-2.1.5-4.6,5.4-8.3,10-7.4-.5-1.5-.8-3.1-.9-4.7-4,.2-7.7,3.5-8.2,7.5-2.8-4.8-11.6-3.3-12.7,2.1-3.2-10.6-10.1-21.4-20.9-23.7-8.3-1.8-17.3,2.3-22.2,9.3-2.4,3.4-3.8,7.5-4.3,11.6.7-2.5,1.9-4.9,3.4-7.1Z"/>
          </g>
        </g>
        <path class="cls-4" d="M193.5,721.4s6.6.8,6.8,7.2c0,0,5.8-5.4,9.5-.7"/>
        <path class="cls-5" d="M225.6,749.6s3.4,1.2,2.8,4.7c0,0,3.7-2.2,5.2.8"/>
        <g class="cls-9">
          <path class="cls-6" d="M52,727c6.8-5.4,16.1-1.5,17.9,6.9.9,5.6-.5,1.5-2.2-.6-3.7-5.7-9-7-15.6-6.2h0Z"/>
        </g>
        <g class="cls-9">
          <path class="cls-6" d="M124.6,705.3c6.8-5.4,16.1-1.5,17.9,6.9.9,5.6-.5,1.5-2.2-.6-3.7-5.7-9-7-15.6-6.2h0Z"/>
        </g>
        <path class="cls-2" d="M95.5,723.1c1.9,0,1.9-3,0-3s-1.9,3,0,3h0Z"/>
        <path class="cls-2" d="M107.3,728.5c1.9,0,1.9-3,0-3s-1.9,3,0,3h0Z"/>
        <path class="cls-2" d="M174.4,724.9c1.9,0,1.9-3,0-3s-1.9,3,0,3h0Z"/>
        <path class="cls-2" d="M224.3,731.3c1.9,0,1.9-3,0-3s-1.9,3,0,3h0Z"/>
        <path class="cls-2" d="M110.9,765.7c1.9,0,1.9-3,0-3s-1.9,3,0,3h0Z"/>
        <path class="cls-2" d="M100.1,767.5c1.9,0,1.9-3,0-3s-1.9,3,0,3h0Z"/>
        <path class="cls-2" d="M154.7,765.3h-34.7c.1-2,1.5-3.9,3.3-4.5,2.3-.8,4.8,0,6.9,1.4,0-2.6,1.7-5.2,4-5.7,2.3-.5,4.8,1.2,5.5,3.7.2-2.9.5-6.1,2.4-8.1,1.9-2,5.3-1.9,7.1.2,1.8,2.1,1.8,6,0,8.1,1.3-1,2.9-1.4,4.4-.8s2.5,2.3,2.3,4.1c0,.5-.5,1.1-1.1,1.6Z"/>
      </g>
    </g>
  </g>
</svg>