<?xml version="1.0" encoding="utf-8" ?>
<svg baseProfile="tiny" height="600" version="1.2" width="800" xmlns="http://www.w3.org/2000/svg" xmlns:ev="http://www.w3.org/2001/xml-events" xmlns:xlink="http://www.w3.org/1999/xlink"><defs /><rect fill="#FFDEBD" height="100" width="100" x="0" y="0" /><rect fill="#CD853F" height="100" width="100" x="0" y="100" /><rect fill="#B4DBB3" height="100" width="100" x="0" y="200" /><rect fill="#EEAEC9" height="100" width="100" x="0" y="300" /><rect fill="#A6BBE8" height="100" width="100" x="0" y="400" /><rect fill="#FFDEBD" height="100" width="100" x="0" y="500" /><rect fill="#CD853F" height="100" width="100" x="100" y="0" /><rect fill="#B4DBB3" height="100" width="100" x="100" y="100" /><rect fill="#EEAEC9" height="100" width="100" x="100" y="200" /><rect fill="#A6BBE8" height="100" width="100" x="100" y="300" /><rect fill="#FFDEBD" height="100" width="100" x="100" y="400" /><rect fill="#CD853F" height="100" width="100" x="100" y="500" /><rect fill="#B4DBB3" height="100" width="100" x="200" y="0" /><rect fill="#EEAEC9" height="100" width="100" x="200" y="100" /><rect fill="#A6BBE8" height="100" width="100" x="200" y="200" /><rect fill="#FFDEBD" height="100" width="100" x="200" y="300" /><rect fill="#CD853F" height="100" width="100" x="200" y="400" /><rect fill="#B4DBB3" height="100" width="100" x="200" y="500" /><rect fill="#EEAEC9" height="100" width="100" x="300" y="0" /><rect fill="#A6BBE8" height="100" width="100" x="300" y="100" /><rect fill="#FFDEBD" height="100" width="100" x="300" y="200" /><rect fill="#CD853F" height="100" width="100" x="300" y="300" /><rect fill="#B4DBB3" height="100" width="100" x="300" y="400" /><rect fill="#EEAEC9" height="100" width="100" x="300" y="500" /><rect fill="#A6BBE8" height="100" width="100" x="400" y="0" /><rect fill="#FFDEBD" height="100" width="100" x="400" y="100" /><rect fill="#CD853F" height="100" width="100" x="400" y="200" /><rect fill="#B4DBB3" height="100" width="100" x="400" y="300" /><rect fill="#EEAEC9" height="100" width="100" x="400" y="400" /><rect fill="#A6BBE8" height="100" width="100" x="400" y="500" /><rect fill="#FFDEBD" height="100" width="100" x="500" y="0" /><rect fill="#CD853F" height="100" width="100" x="500" y="100" /><rect fill="#B4DBB3" height="100" width="100" x="500" y="200" /><rect fill="#EEAEC9" height="100" width="100" x="500" y="300" /><rect fill="#A6BBE8" height="100" width="100" x="500" y="400" /><rect fill="#FFDEBD" height="100" width="100" x="500" y="500" /><rect fill="#CD853F" height="100" width="100" x="600" y="0" /><rect fill="#B4DBB3" height="100" width="100" x="600" y="100" /><rect fill="#EEAEC9" height="100" width="100" x="600" y="200" /><rect fill="#A6BBE8" height="100" width="100" x="600" y="300" /><rect fill="#FFDEBD" height="100" width="100" x="600" y="400" /><rect fill="#CD853F" height="100" width="100" x="600" y="500" /><rect fill="#B4DBB3" height="100" width="100" x="700" y="0" /><rect fill="#EEAEC9" height="100" width="100" x="700" y="100" /><rect fill="#A6BBE8" height="100" width="100" x="700" y="200" /><rect fill="#FFDEBD" height="100" width="100" x="700" y="300" /><rect fill="#CD853F" height="100" width="100" x="700" y="400" /><rect fill="#B4DBB3" height="100" width="100" x="700" y="500" /></svg>
